<?xml version="1.0" encoding="utf-8" standalone="no"?>
<!DOCTYPE svg PUBLIC "-//W3C//DTD SVG 1.1//EN"
  "http://www.w3.org/Graphics/SVG/1.1/DTD/svg11.dtd">
<svg xmlns:xlink="http://www.w3.org/1999/xlink" width="720pt" height="576pt" viewBox="0 0 720 576" xmlns="http://www.w3.org/2000/svg" version="1.1">
 <metadata>
  <rdf:RDF xmlns:dc="http://purl.org/dc/elements/1.1/" xmlns:cc="http://creativecommons.org/ns#" xmlns:rdf="http://www.w3.org/1999/02/22-rdf-syntax-ns#">
   <cc:Work>
    <dc:type rdf:resource="http://purl.org/dc/dcmitype/StillImage"/>
    <dc:date>2026-02-09T13:21:28.425908</dc:date>
    <dc:format>image/svg+xml</dc:format>
    <dc:creator>
     <cc:Agent>
      <dc:title>Matplotlib v3.10.8, https://matplotlib.org/</dc:title>
     </cc:Agent>
    </dc:creator>
   </cc:Work>
  </rdf:RDF>
 </metadata>
 <defs>
  <style type="text/css">*{stroke-linejoin: round; stroke-linecap: butt}</style>
 </defs>
 <g id="figure_1">
  <g id="patch_1">
   <path d="M 0 576 
L 720 576 
L 720 0 
L 0 0 
z
" style="fill: #ffffff"/>
  </g>
  <g id="axes_1">
   <g id="patch_2">
    <path d="M 83.27 534.04 
L 709.2 534.04 
L 709.2 25.44 
L 83.27 25.44 
z
" style="fill: #ffffff"/>
   </g>
   <g id="patch_3">
    <path d="M 83.27 27.983 
L 679.39381 27.983 
L 679.39381 48.327 
L 83.27 48.327 
z
" clip-path="url(#pb0489a296e)" style="fill: #090817"/>
   </g>
   <g id="patch_4">
    <path d="M 83.27 53.413 
L 504.412194 53.413 
L 504.412194 73.757 
L 83.27 73.757 
z
" clip-path="url(#pb0489a296e)" style="fill: #16122f"/>
   </g>
   <g id="patch_5">
    <path d="M 83.27 78.843 
L 443.499428 78.843 
L 443.499428 99.187 
L 83.27 99.187 
z
" clip-path="url(#pb0489a296e)" style="fill: #261948"/>
   </g>
   <g id="patch_6">
    <path d="M 83.27 104.273 
L 438.936674 104.273 
L 438.936674 124.617 
L 83.27 124.617 
z
" clip-path="url(#pb0489a296e)" style="fill: #381b5f"/>
   </g>
   <g id="patch_7">
    <path d="M 83.27 129.703 
L 240.685013 129.703 
L 240.685013 150.047 
L 83.27 150.047 
z
" clip-path="url(#pb0489a296e)" style="fill: #491e6c"/>
   </g>
   <g id="patch_8">
    <path d="M 83.27 155.133 
L 166.768398 155.133 
L 166.768398 175.477 
L 83.27 175.477 
z
" clip-path="url(#pb0489a296e)" style="fill: #5a2572"/>
   </g>
   <g id="patch_9">
    <path d="M 83.27 180.563 
L 164.487021 180.563 
L 164.487021 200.907 
L 83.27 200.907 
z
" clip-path="url(#pb0489a296e)" style="fill: #692c75"/>
   </g>
   <g id="patch_10">
    <path d="M 83.27 205.993 
L 146.236005 205.993 
L 146.236005 226.337 
L 83.27 226.337 
z
" clip-path="url(#pb0489a296e)" style="fill: #793276"/>
   </g>
   <g id="patch_11">
    <path d="M 83.27 231.423 
L 145.551592 231.423 
L 145.551592 251.767 
L 83.27 251.767 
z
" clip-path="url(#pb0489a296e)" style="fill: #8a3a78"/>
   </g>
   <g id="patch_12">
    <path d="M 83.27 256.853 
L 134.372845 256.853 
L 134.372845 277.197 
L 83.27 277.197 
z
" clip-path="url(#pb0489a296e)" style="fill: #9c4279"/>
   </g>
   <g id="patch_13">
    <path d="M 83.27 282.283 
L 123.650373 282.283 
L 123.650373 302.627 
L 83.27 302.627 
z
" clip-path="url(#pb0489a296e)" style="fill: #b04b78"/>
   </g>
   <g id="patch_14">
    <path d="M 83.27 307.713 
L 109.277698 307.713 
L 109.277698 328.057 
L 83.27 328.057 
z
" clip-path="url(#pb0489a296e)" style="fill: #c15575"/>
   </g>
   <g id="patch_15">
    <path d="M 83.27 333.143 
L 95.361298 333.143 
L 95.361298 353.487 
L 83.27 353.487 
z
" clip-path="url(#pb0489a296e)" style="fill: #d26272"/>
   </g>
   <g id="patch_16">
    <path d="M 83.27 358.573 
L 91.482957 358.573 
L 91.482957 378.917 
L 83.27 378.917 
z
" clip-path="url(#pb0489a296e)" style="fill: #de7270"/>
   </g>
   <g id="patch_17">
    <path d="M 83.27 384.003 
L 91.254819 384.003 
L 91.254819 404.347 
L 83.27 404.347 
z
" clip-path="url(#pb0489a296e)" style="fill: #e58370"/>
   </g>
   <g id="patch_18">
    <path d="M 83.27 409.433 
L 89.885993 409.433 
L 89.885993 429.777 
L 83.27 429.777 
z
" clip-path="url(#pb0489a296e)" style="fill: #e99777"/>
   </g>
   <g id="patch_19">
    <path d="M 83.27 434.863 
L 89.657856 434.863 
L 89.657856 455.207 
L 83.27 455.207 
z
" clip-path="url(#pb0489a296e)" style="fill: #eca982"/>
   </g>
   <g id="patch_20">
    <path d="M 83.27 460.293 
L 89.429718 460.293 
L 89.429718 480.637 
L 83.27 480.637 
z
" clip-path="url(#pb0489a296e)" style="fill: #efbc91"/>
   </g>
   <g id="patch_21">
    <path d="M 83.27 485.723 
L 87.832754 485.723 
L 87.832754 506.067 
L 83.27 506.067 
z
" clip-path="url(#pb0489a296e)" style="fill: #f1cfa1"/>
   </g>
   <g id="patch_22">
    <path d="M 83.27 511.153 
L 87.376479 511.153 
L 87.376479 531.497 
L 83.27 531.497 
z
" clip-path="url(#pb0489a296e)" style="fill: #f2e2b3"/>
   </g>
   <g id="matplotlib.axis_1">
    <g id="xtick_1">
     <g id="line2d_1">
      <path d="M 83.27 534.04 
L 83.27 25.44 
" clip-path="url(#pb0489a296e)" style="fill: none; stroke-dasharray: 2.96,1.28; stroke-dashoffset: 0; stroke: #b0b0b0; stroke-opacity: 0.6; stroke-width: 0.8"/>
     </g>
     <g id="line2d_2">
      <defs>
       <path id="m0ba689d182" d="M 0 0 
L 0 3.5 
" style="stroke: #000000; stroke-width: 0.8"/>
      </defs>
      <g>
       <use xlink:href="#m0ba689d182" x="83.27" y="534.04" style="stroke: #000000; stroke-width: 0.8"/>
      </g>
     </g>
     <g id="text_1">
      <!-- 0 -->
      <g transform="translate(80.08875 548.638438) scale(0.1 -0.1)">
       <defs>
        <path id="DejaVuSans-30" d="M 2034 4250 
Q 1547 4250 1301 3770 
Q 1056 3291 1056 2328 
Q 1056 1369 1301 889 
Q 1547 409 2034 409 
Q 2525 409 2770 889 
Q 3016 1369 3016 2328 
Q 3016 3291 2770 3770 
Q 2525 4250 2034 4250 
z
M 2034 4750 
Q 2819 4750 3233 4129 
Q 3647 3509 3647 2328 
Q 3647 1150 3233 529 
Q 2819 -91 2034 -91 
Q 1250 -91 836 529 
Q 422 1150 422 2328 
Q 422 3509 836 4129 
Q 1250 4750 2034 4750 
z
" transform="scale(0.015625)"/>
       </defs>
       <use xlink:href="#DejaVuSans-30"/>
      </g>
     </g>
    </g>
    <g id="xtick_2">
     <g id="line2d_3">
      <path d="M 197.33885 534.04 
L 197.33885 25.44 
" clip-path="url(#pb0489a296e)" style="fill: none; stroke-dasharray: 2.96,1.28; stroke-dashoffset: 0; stroke: #b0b0b0; stroke-opacity: 0.6; stroke-width: 0.8"/>
     </g>
     <g id="line2d_4">
      <g>
       <use xlink:href="#m0ba689d182" x="197.33885" y="534.04" style="stroke: #000000; stroke-width: 0.8"/>
      </g>
     </g>
     <g id="text_2">
      <!-- 500 -->
      <g transform="translate(187.7951 548.638438) scale(0.1 -0.1)">
       <defs>
        <path id="DejaVuSans-35" d="M 691 4666 
L 3169 4666 
L 3169 4134 
L 1269 4134 
L 1269 2991 
Q 1406 3038 1543 3061 
Q 1681 3084 1819 3084 
Q 2600 3084 3056 2656 
Q 3513 2228 3513 1497 
Q 3513 744 3044 326 
Q 2575 -91 1722 -91 
Q 1428 -91 1123 -41 
Q 819 9 494 109 
L 494 744 
Q 775 591 1075 516 
Q 1375 441 1709 441 
Q 2250 441 2565 725 
Q 2881 1009 2881 1497 
Q 2881 1984 2565 2268 
Q 2250 2553 1709 2553 
Q 1456 2553 1204 2497 
Q 953 2441 691 2322 
L 691 4666 
z
" transform="scale(0.015625)"/>
       </defs>
       <use xlink:href="#DejaVuSans-35"/>
       <use xlink:href="#DejaVuSans-30" transform="translate(63.623047 0)"/>
       <use xlink:href="#DejaVuSans-30" transform="translate(127.246094 0)"/>
      </g>
     </g>
    </g>
    <g id="xtick_3">
     <g id="line2d_5">
      <path d="M 311.4077 534.04 
L 311.4077 25.44 
" clip-path="url(#pb0489a296e)" style="fill: none; stroke-dasharray: 2.96,1.28; stroke-dashoffset: 0; stroke: #b0b0b0; stroke-opacity: 0.6; stroke-width: 0.8"/>
     </g>
     <g id="line2d_6">
      <g>
       <use xlink:href="#m0ba689d182" x="311.4077" y="534.04" style="stroke: #000000; stroke-width: 0.8"/>
      </g>
     </g>
     <g id="text_3">
      <!-- 1000 -->
      <g transform="translate(298.6827 548.638438) scale(0.1 -0.1)">
       <defs>
        <path id="DejaVuSans-31" d="M 794 531 
L 1825 531 
L 1825 4091 
L 703 3866 
L 703 4441 
L 1819 4666 
L 2450 4666 
L 2450 531 
L 3481 531 
L 3481 0 
L 794 0 
L 794 531 
z
" transform="scale(0.015625)"/>
       </defs>
       <use xlink:href="#DejaVuSans-31"/>
       <use xlink:href="#DejaVuSans-30" transform="translate(63.623047 0)"/>
       <use xlink:href="#DejaVuSans-30" transform="translate(127.246094 0)"/>
       <use xlink:href="#DejaVuSans-30" transform="translate(190.869141 0)"/>
      </g>
     </g>
    </g>
    <g id="xtick_4">
     <g id="line2d_7">
      <path d="M 425.47655 534.04 
L 425.47655 25.44 
" clip-path="url(#pb0489a296e)" style="fill: none; stroke-dasharray: 2.96,1.28; stroke-dashoffset: 0; stroke: #b0b0b0; stroke-opacity: 0.6; stroke-width: 0.8"/>
     </g>
     <g id="line2d_8">
      <g>
       <use xlink:href="#m0ba689d182" x="425.47655" y="534.04" style="stroke: #000000; stroke-width: 0.8"/>
      </g>
     </g>
     <g id="text_4">
      <!-- 1500 -->
      <g transform="translate(412.75155 548.638438) scale(0.1 -0.1)">
       <use xlink:href="#DejaVuSans-31"/>
       <use xlink:href="#DejaVuSans-35" transform="translate(63.623047 0)"/>
       <use xlink:href="#DejaVuSans-30" transform="translate(127.246094 0)"/>
       <use xlink:href="#DejaVuSans-30" transform="translate(190.869141 0)"/>
      </g>
     </g>
    </g>
    <g id="xtick_5">
     <g id="line2d_9">
      <path d="M 539.5454 534.04 
L 539.5454 25.44 
" clip-path="url(#pb0489a296e)" style="fill: none; stroke-dasharray: 2.96,1.28; stroke-dashoffset: 0; stroke: #b0b0b0; stroke-opacity: 0.6; stroke-width: 0.8"/>
     </g>
     <g id="line2d_10">
      <g>
       <use xlink:href="#m0ba689d182" x="539.5454" y="534.04" style="stroke: #000000; stroke-width: 0.8"/>
      </g>
     </g>
     <g id="text_5">
      <!-- 2000 -->
      <g transform="translate(526.8204 548.638438) scale(0.1 -0.1)">
       <defs>
        <path id="DejaVuSans-32" d="M 1228 531 
L 3431 531 
L 3431 0 
L 469 0 
L 469 531 
Q 828 903 1448 1529 
Q 2069 2156 2228 2338 
Q 2531 2678 2651 2914 
Q 2772 3150 2772 3378 
Q 2772 3750 2511 3984 
Q 2250 4219 1831 4219 
Q 1534 4219 1204 4116 
Q 875 4013 500 3803 
L 500 4441 
Q 881 4594 1212 4672 
Q 1544 4750 1819 4750 
Q 2544 4750 2975 4387 
Q 3406 4025 3406 3419 
Q 3406 3131 3298 2873 
Q 3191 2616 2906 2266 
Q 2828 2175 2409 1742 
Q 1991 1309 1228 531 
z
" transform="scale(0.015625)"/>
       </defs>
       <use xlink:href="#DejaVuSans-32"/>
       <use xlink:href="#DejaVuSans-30" transform="translate(63.623047 0)"/>
       <use xlink:href="#DejaVuSans-30" transform="translate(127.246094 0)"/>
       <use xlink:href="#DejaVuSans-30" transform="translate(190.869141 0)"/>
      </g>
     </g>
    </g>
    <g id="xtick_6">
     <g id="line2d_11">
      <path d="M 653.614249 534.04 
L 653.614249 25.44 
" clip-path="url(#pb0489a296e)" style="fill: none; stroke-dasharray: 2.96,1.28; stroke-dashoffset: 0; stroke: #b0b0b0; stroke-opacity: 0.6; stroke-width: 0.8"/>
     </g>
     <g id="line2d_12">
      <g>
       <use xlink:href="#m0ba689d182" x="653.614249" y="534.04" style="stroke: #000000; stroke-width: 0.8"/>
      </g>
     </g>
     <g id="text_6">
      <!-- 2500 -->
      <g transform="translate(640.889249 548.638438) scale(0.1 -0.1)">
       <use xlink:href="#DejaVuSans-32"/>
       <use xlink:href="#DejaVuSans-35" transform="translate(63.623047 0)"/>
       <use xlink:href="#DejaVuSans-30" transform="translate(127.246094 0)"/>
       <use xlink:href="#DejaVuSans-30" transform="translate(190.869141 0)"/>
      </g>
     </g>
    </g>
    <g id="text_7">
     <!-- Total Samples -->
     <g transform="translate(361.61625 562.316563) scale(0.1 -0.1)">
      <defs>
       <path id="DejaVuSans-54" d="M -19 4666 
L 3928 4666 
L 3928 4134 
L 2272 4134 
L 2272 0 
L 1638 0 
L 1638 4134 
L -19 4134 
L -19 4666 
z
" transform="scale(0.015625)"/>
       <path id="DejaVuSans-6f" d="M 1959 3097 
Q 1497 3097 1228 2736 
Q 959 2375 959 1747 
Q 959 1119 1226 758 
Q 1494 397 1959 397 
Q 2419 397 2687 759 
Q 2956 1122 2956 1747 
Q 2956 2369 2687 2733 
Q 2419 3097 1959 3097 
z
M 1959 3584 
Q 2709 3584 3137 3096 
Q 3566 2609 3566 1747 
Q 3566 888 3137 398 
Q 2709 -91 1959 -91 
Q 1206 -91 779 398 
Q 353 888 353 1747 
Q 353 2609 779 3096 
Q 1206 3584 1959 3584 
z
" transform="scale(0.015625)"/>
       <path id="DejaVuSans-74" d="M 1172 4494 
L 1172 3500 
L 2356 3500 
L 2356 3053 
L 1172 3053 
L 1172 1153 
Q 1172 725 1289 603 
Q 1406 481 1766 481 
L 2356 481 
L 2356 0 
L 1766 0 
Q 1100 0 847 248 
Q 594 497 594 1153 
L 594 3053 
L 172 3053 
L 172 3500 
L 594 3500 
L 594 4494 
L 1172 4494 
z
" transform="scale(0.015625)"/>
       <path id="DejaVuSans-61" d="M 2194 1759 
Q 1497 1759 1228 1600 
Q 959 1441 959 1056 
Q 959 750 1161 570 
Q 1363 391 1709 391 
Q 2188 391 2477 730 
Q 2766 1069 2766 1631 
L 2766 1759 
L 2194 1759 
z
M 3341 1997 
L 3341 0 
L 2766 0 
L 2766 531 
Q 2569 213 2275 61 
Q 1981 -91 1556 -91 
Q 1019 -91 701 211 
Q 384 513 384 1019 
Q 384 1609 779 1909 
Q 1175 2209 1959 2209 
L 2766 2209 
L 2766 2266 
Q 2766 2663 2505 2880 
Q 2244 3097 1772 3097 
Q 1472 3097 1187 3025 
Q 903 2953 641 2809 
L 641 3341 
Q 956 3463 1253 3523 
Q 1550 3584 1831 3584 
Q 2591 3584 2966 3190 
Q 3341 2797 3341 1997 
z
" transform="scale(0.015625)"/>
       <path id="DejaVuSans-6c" d="M 603 4863 
L 1178 4863 
L 1178 0 
L 603 0 
L 603 4863 
z
" transform="scale(0.015625)"/>
       <path id="DejaVuSans-20" transform="scale(0.015625)"/>
       <path id="DejaVuSans-53" d="M 3425 4513 
L 3425 3897 
Q 3066 4069 2747 4153 
Q 2428 4238 2131 4238 
Q 1616 4238 1336 4038 
Q 1056 3838 1056 3469 
Q 1056 3159 1242 3001 
Q 1428 2844 1947 2747 
L 2328 2669 
Q 3034 2534 3370 2195 
Q 3706 1856 3706 1288 
Q 3706 609 3251 259 
Q 2797 -91 1919 -91 
Q 1588 -91 1214 -16 
Q 841 59 441 206 
L 441 856 
Q 825 641 1194 531 
Q 1563 422 1919 422 
Q 2459 422 2753 634 
Q 3047 847 3047 1241 
Q 3047 1584 2836 1778 
Q 2625 1972 2144 2069 
L 1759 2144 
Q 1053 2284 737 2584 
Q 422 2884 422 3419 
Q 422 4038 858 4394 
Q 1294 4750 2059 4750 
Q 2388 4750 2728 4690 
Q 3069 4631 3425 4513 
z
" transform="scale(0.015625)"/>
       <path id="DejaVuSans-6d" d="M 3328 2828 
Q 3544 3216 3844 3400 
Q 4144 3584 4550 3584 
Q 5097 3584 5394 3201 
Q 5691 2819 5691 2113 
L 5691 0 
L 5113 0 
L 5113 2094 
Q 5113 2597 4934 2840 
Q 4756 3084 4391 3084 
Q 3944 3084 3684 2787 
Q 3425 2491 3425 1978 
L 3425 0 
L 2847 0 
L 2847 2094 
Q 2847 2600 2669 2842 
Q 2491 3084 2119 3084 
Q 1678 3084 1418 2786 
Q 1159 2488 1159 1978 
L 1159 0 
L 581 0 
L 581 3500 
L 1159 3500 
L 1159 2956 
Q 1356 3278 1631 3431 
Q 1906 3584 2284 3584 
Q 2666 3584 2933 3390 
Q 3200 3197 3328 2828 
z
" transform="scale(0.015625)"/>
       <path id="DejaVuSans-70" d="M 1159 525 
L 1159 -1331 
L 581 -1331 
L 581 3500 
L 1159 3500 
L 1159 2969 
Q 1341 3281 1617 3432 
Q 1894 3584 2278 3584 
Q 2916 3584 3314 3078 
Q 3713 2572 3713 1747 
Q 3713 922 3314 415 
Q 2916 -91 2278 -91 
Q 1894 -91 1617 61 
Q 1341 213 1159 525 
z
M 3116 1747 
Q 3116 2381 2855 2742 
Q 2594 3103 2138 3103 
Q 1681 3103 1420 2742 
Q 1159 2381 1159 1747 
Q 1159 1113 1420 752 
Q 1681 391 2138 391 
Q 2594 391 2855 752 
Q 3116 1113 3116 1747 
z
" transform="scale(0.015625)"/>
       <path id="DejaVuSans-65" d="M 3597 1894 
L 3597 1613 
L 953 1613 
Q 991 1019 1311 708 
Q 1631 397 2203 397 
Q 2534 397 2845 478 
Q 3156 559 3463 722 
L 3463 178 
Q 3153 47 2828 -22 
Q 2503 -91 2169 -91 
Q 1331 -91 842 396 
Q 353 884 353 1716 
Q 353 2575 817 3079 
Q 1281 3584 2069 3584 
Q 2775 3584 3186 3129 
Q 3597 2675 3597 1894 
z
M 3022 2063 
Q 3016 2534 2758 2815 
Q 2500 3097 2075 3097 
Q 1594 3097 1305 2825 
Q 1016 2553 972 2059 
L 3022 2063 
z
" transform="scale(0.015625)"/>
       <path id="DejaVuSans-73" d="M 2834 3397 
L 2834 2853 
Q 2591 2978 2328 3040 
Q 2066 3103 1784 3103 
Q 1356 3103 1142 2972 
Q 928 2841 928 2578 
Q 928 2378 1081 2264 
Q 1234 2150 1697 2047 
L 1894 2003 
Q 2506 1872 2764 1633 
Q 3022 1394 3022 966 
Q 3022 478 2636 193 
Q 2250 -91 1575 -91 
Q 1294 -91 989 -36 
Q 684 19 347 128 
L 347 722 
Q 666 556 975 473 
Q 1284 391 1588 391 
Q 1994 391 2212 530 
Q 2431 669 2431 922 
Q 2431 1156 2273 1281 
Q 2116 1406 1581 1522 
L 1381 1569 
Q 847 1681 609 1914 
Q 372 2147 372 2553 
Q 372 3047 722 3315 
Q 1072 3584 1716 3584 
Q 2034 3584 2315 3537 
Q 2597 3491 2834 3397 
z
" transform="scale(0.015625)"/>
      </defs>
      <use xlink:href="#DejaVuSans-54"/>
      <use xlink:href="#DejaVuSans-6f" transform="translate(44.083984 0)"/>
      <use xlink:href="#DejaVuSans-74" transform="translate(105.265625 0)"/>
      <use xlink:href="#DejaVuSans-61" transform="translate(144.474609 0)"/>
      <use xlink:href="#DejaVuSans-6c" transform="translate(205.753906 0)"/>
      <use xlink:href="#DejaVuSans-20" transform="translate(233.537109 0)"/>
      <use xlink:href="#DejaVuSans-53" transform="translate(265.324219 0)"/>
      <use xlink:href="#DejaVuSans-61" transform="translate(328.800781 0)"/>
      <use xlink:href="#DejaVuSans-6d" transform="translate(390.080078 0)"/>
      <use xlink:href="#DejaVuSans-70" transform="translate(487.492188 0)"/>
      <use xlink:href="#DejaVuSans-6c" transform="translate(550.96875 0)"/>
      <use xlink:href="#DejaVuSans-65" transform="translate(578.751953 0)"/>
      <use xlink:href="#DejaVuSans-73" transform="translate(640.275391 0)"/>
     </g>
    </g>
   </g>
   <g id="matplotlib.axis_2">
    <g id="ytick_1">
     <g id="line2d_13">
      <defs>
       <path id="me61a78ca0c" d="M 0 0 
L -3.5 0 
" style="stroke: #000000; stroke-width: 0.8"/>
      </defs>
      <g>
       <use xlink:href="#me61a78ca0c" x="83.27" y="38.155" style="stroke: #000000; stroke-width: 0.8"/>
      </g>
     </g>
     <g id="text_8">
      <!-- GPL17639 -->
      <g transform="translate(25.1075 41.954219) scale(0.1 -0.1)">
       <defs>
        <path id="DejaVuSans-47" d="M 3809 666 
L 3809 1919 
L 2778 1919 
L 2778 2438 
L 4434 2438 
L 4434 434 
Q 4069 175 3628 42 
Q 3188 -91 2688 -91 
Q 1594 -91 976 548 
Q 359 1188 359 2328 
Q 359 3472 976 4111 
Q 1594 4750 2688 4750 
Q 3144 4750 3555 4637 
Q 3966 4525 4313 4306 
L 4313 3634 
Q 3963 3931 3569 4081 
Q 3175 4231 2741 4231 
Q 1884 4231 1454 3753 
Q 1025 3275 1025 2328 
Q 1025 1384 1454 906 
Q 1884 428 2741 428 
Q 3075 428 3337 486 
Q 3600 544 3809 666 
z
" transform="scale(0.015625)"/>
        <path id="DejaVuSans-50" d="M 1259 4147 
L 1259 2394 
L 2053 2394 
Q 2494 2394 2734 2622 
Q 2975 2850 2975 3272 
Q 2975 3691 2734 3919 
Q 2494 4147 2053 4147 
L 1259 4147 
z
M 628 4666 
L 2053 4666 
Q 2838 4666 3239 4311 
Q 3641 3956 3641 3272 
Q 3641 2581 3239 2228 
Q 2838 1875 2053 1875 
L 1259 1875 
L 1259 0 
L 628 0 
L 628 4666 
z
" transform="scale(0.015625)"/>
        <path id="DejaVuSans-4c" d="M 628 4666 
L 1259 4666 
L 1259 531 
L 3531 531 
L 3531 0 
L 628 0 
L 628 4666 
z
" transform="scale(0.015625)"/>
        <path id="DejaVuSans-37" d="M 525 4666 
L 3525 4666 
L 3525 4397 
L 1831 0 
L 1172 0 
L 2766 4134 
L 525 4134 
L 525 4666 
z
" transform="scale(0.015625)"/>
        <path id="DejaVuSans-36" d="M 2113 2584 
Q 1688 2584 1439 2293 
Q 1191 2003 1191 1497 
Q 1191 994 1439 701 
Q 1688 409 2113 409 
Q 2538 409 2786 701 
Q 3034 994 3034 1497 
Q 3034 2003 2786 2293 
Q 2538 2584 2113 2584 
z
M 3366 4563 
L 3366 3988 
Q 3128 4100 2886 4159 
Q 2644 4219 2406 4219 
Q 1781 4219 1451 3797 
Q 1122 3375 1075 2522 
Q 1259 2794 1537 2939 
Q 1816 3084 2150 3084 
Q 2853 3084 3261 2657 
Q 3669 2231 3669 1497 
Q 3669 778 3244 343 
Q 2819 -91 2113 -91 
Q 1303 -91 875 529 
Q 447 1150 447 2328 
Q 447 3434 972 4092 
Q 1497 4750 2381 4750 
Q 2619 4750 2861 4703 
Q 3103 4656 3366 4563 
z
" transform="scale(0.015625)"/>
        <path id="DejaVuSans-33" d="M 2597 2516 
Q 3050 2419 3304 2112 
Q 3559 1806 3559 1356 
Q 3559 666 3084 287 
Q 2609 -91 1734 -91 
Q 1441 -91 1130 -33 
Q 819 25 488 141 
L 488 750 
Q 750 597 1062 519 
Q 1375 441 1716 441 
Q 2309 441 2620 675 
Q 2931 909 2931 1356 
Q 2931 1769 2642 2001 
Q 2353 2234 1838 2234 
L 1294 2234 
L 1294 2753 
L 1863 2753 
Q 2328 2753 2575 2939 
Q 2822 3125 2822 3475 
Q 2822 3834 2567 4026 
Q 2313 4219 1838 4219 
Q 1578 4219 1281 4162 
Q 984 4106 628 3988 
L 628 4550 
Q 988 4650 1302 4700 
Q 1616 4750 1894 4750 
Q 2613 4750 3031 4423 
Q 3450 4097 3450 3541 
Q 3450 3153 3228 2886 
Q 3006 2619 2597 2516 
z
" transform="scale(0.015625)"/>
        <path id="DejaVuSans-39" d="M 703 97 
L 703 672 
Q 941 559 1184 500 
Q 1428 441 1663 441 
Q 2288 441 2617 861 
Q 2947 1281 2994 2138 
Q 2813 1869 2534 1725 
Q 2256 1581 1919 1581 
Q 1219 1581 811 2004 
Q 403 2428 403 3163 
Q 403 3881 828 4315 
Q 1253 4750 1959 4750 
Q 2769 4750 3195 4129 
Q 3622 3509 3622 2328 
Q 3622 1225 3098 567 
Q 2575 -91 1691 -91 
Q 1453 -91 1209 -44 
Q 966 3 703 97 
z
M 1959 2075 
Q 2384 2075 2632 2365 
Q 2881 2656 2881 3163 
Q 2881 3666 2632 3958 
Q 2384 4250 1959 4250 
Q 1534 4250 1286 3958 
Q 1038 3666 1038 3163 
Q 1038 2656 1286 2365 
Q 1534 2075 1959 2075 
z
" transform="scale(0.015625)"/>
       </defs>
       <use xlink:href="#DejaVuSans-47"/>
       <use xlink:href="#DejaVuSans-50" transform="translate(77.490234 0)"/>
       <use xlink:href="#DejaVuSans-4c" transform="translate(137.792969 0)"/>
       <use xlink:href="#DejaVuSans-31" transform="translate(193.505859 0)"/>
       <use xlink:href="#DejaVuSans-37" transform="translate(257.128906 0)"/>
       <use xlink:href="#DejaVuSans-36" transform="translate(320.751953 0)"/>
       <use xlink:href="#DejaVuSans-33" transform="translate(384.375 0)"/>
       <use xlink:href="#DejaVuSans-39" transform="translate(447.998047 0)"/>
      </g>
     </g>
    </g>
    <g id="ytick_2">
     <g id="line2d_14">
      <g>
       <use xlink:href="#me61a78ca0c" x="83.27" y="63.585" style="stroke: #000000; stroke-width: 0.8"/>
      </g>
     </g>
     <g id="text_9">
      <!-- GPL26208 -->
      <g transform="translate(25.1075 67.384219) scale(0.1 -0.1)">
       <defs>
        <path id="DejaVuSans-38" d="M 2034 2216 
Q 1584 2216 1326 1975 
Q 1069 1734 1069 1313 
Q 1069 891 1326 650 
Q 1584 409 2034 409 
Q 2484 409 2743 651 
Q 3003 894 3003 1313 
Q 3003 1734 2745 1975 
Q 2488 2216 2034 2216 
z
M 1403 2484 
Q 997 2584 770 2862 
Q 544 3141 544 3541 
Q 544 4100 942 4425 
Q 1341 4750 2034 4750 
Q 2731 4750 3128 4425 
Q 3525 4100 3525 3541 
Q 3525 3141 3298 2862 
Q 3072 2584 2669 2484 
Q 3125 2378 3379 2068 
Q 3634 1759 3634 1313 
Q 3634 634 3220 271 
Q 2806 -91 2034 -91 
Q 1263 -91 848 271 
Q 434 634 434 1313 
Q 434 1759 690 2068 
Q 947 2378 1403 2484 
z
M 1172 3481 
Q 1172 3119 1398 2916 
Q 1625 2713 2034 2713 
Q 2441 2713 2670 2916 
Q 2900 3119 2900 3481 
Q 2900 3844 2670 4047 
Q 2441 4250 2034 4250 
Q 1625 4250 1398 4047 
Q 1172 3844 1172 3481 
z
" transform="scale(0.015625)"/>
       </defs>
       <use xlink:href="#DejaVuSans-47"/>
       <use xlink:href="#DejaVuSans-50" transform="translate(77.490234 0)"/>
       <use xlink:href="#DejaVuSans-4c" transform="translate(137.792969 0)"/>
       <use xlink:href="#DejaVuSans-32" transform="translate(193.505859 0)"/>
       <use xlink:href="#DejaVuSans-36" transform="translate(257.128906 0)"/>
       <use xlink:href="#DejaVuSans-32" transform="translate(320.751953 0)"/>
       <use xlink:href="#DejaVuSans-30" transform="translate(384.375 0)"/>
       <use xlink:href="#DejaVuSans-38" transform="translate(447.998047 0)"/>
      </g>
     </g>
    </g>
    <g id="ytick_3">
     <g id="line2d_15">
      <g>
       <use xlink:href="#me61a78ca0c" x="83.27" y="89.015" style="stroke: #000000; stroke-width: 0.8"/>
      </g>
     </g>
     <g id="text_10">
      <!-- GPL13222 -->
      <g transform="translate(25.1075 92.814219) scale(0.1 -0.1)">
       <use xlink:href="#DejaVuSans-47"/>
       <use xlink:href="#DejaVuSans-50" transform="translate(77.490234 0)"/>
       <use xlink:href="#DejaVuSans-4c" transform="translate(137.792969 0)"/>
       <use xlink:href="#DejaVuSans-31" transform="translate(193.505859 0)"/>
       <use xlink:href="#DejaVuSans-33" transform="translate(257.128906 0)"/>
       <use xlink:href="#DejaVuSans-32" transform="translate(320.751953 0)"/>
       <use xlink:href="#DejaVuSans-32" transform="translate(384.375 0)"/>
       <use xlink:href="#DejaVuSans-32" transform="translate(447.998047 0)"/>
      </g>
     </g>
    </g>
    <g id="ytick_4">
     <g id="line2d_16">
      <g>
       <use xlink:href="#me61a78ca0c" x="83.27" y="114.445" style="stroke: #000000; stroke-width: 0.8"/>
      </g>
     </g>
     <g id="text_11">
      <!-- GPL19580 -->
      <g transform="translate(25.1075 118.244219) scale(0.1 -0.1)">
       <use xlink:href="#DejaVuSans-47"/>
       <use xlink:href="#DejaVuSans-50" transform="translate(77.490234 0)"/>
       <use xlink:href="#DejaVuSans-4c" transform="translate(137.792969 0)"/>
       <use xlink:href="#DejaVuSans-31" transform="translate(193.505859 0)"/>
       <use xlink:href="#DejaVuSans-39" transform="translate(257.128906 0)"/>
       <use xlink:href="#DejaVuSans-35" transform="translate(320.751953 0)"/>
       <use xlink:href="#DejaVuSans-38" transform="translate(384.375 0)"/>
       <use xlink:href="#DejaVuSans-30" transform="translate(447.998047 0)"/>
      </g>
     </g>
    </g>
    <g id="ytick_5">
     <g id="line2d_17">
      <g>
       <use xlink:href="#me61a78ca0c" x="83.27" y="139.875" style="stroke: #000000; stroke-width: 0.8"/>
      </g>
     </g>
     <g id="text_12">
      <!-- GPL21785 -->
      <g transform="translate(25.1075 143.674219) scale(0.1 -0.1)">
       <use xlink:href="#DejaVuSans-47"/>
       <use xlink:href="#DejaVuSans-50" transform="translate(77.490234 0)"/>
       <use xlink:href="#DejaVuSans-4c" transform="translate(137.792969 0)"/>
       <use xlink:href="#DejaVuSans-32" transform="translate(193.505859 0)"/>
       <use xlink:href="#DejaVuSans-31" transform="translate(257.128906 0)"/>
       <use xlink:href="#DejaVuSans-37" transform="translate(320.751953 0)"/>
       <use xlink:href="#DejaVuSans-38" transform="translate(384.375 0)"/>
       <use xlink:href="#DejaVuSans-35" transform="translate(447.998047 0)"/>
      </g>
     </g>
    </g>
    <g id="ytick_6">
     <g id="line2d_18">
      <g>
       <use xlink:href="#me61a78ca0c" x="83.27" y="165.305" style="stroke: #000000; stroke-width: 0.8"/>
      </g>
     </g>
     <g id="text_13">
      <!-- GPL11221 -->
      <g transform="translate(25.1075 169.104219) scale(0.1 -0.1)">
       <use xlink:href="#DejaVuSans-47"/>
       <use xlink:href="#DejaVuSans-50" transform="translate(77.490234 0)"/>
       <use xlink:href="#DejaVuSans-4c" transform="translate(137.792969 0)"/>
       <use xlink:href="#DejaVuSans-31" transform="translate(193.505859 0)"/>
       <use xlink:href="#DejaVuSans-31" transform="translate(257.128906 0)"/>
       <use xlink:href="#DejaVuSans-32" transform="translate(320.751953 0)"/>
       <use xlink:href="#DejaVuSans-32" transform="translate(384.375 0)"/>
       <use xlink:href="#DejaVuSans-31" transform="translate(447.998047 0)"/>
      </g>
     </g>
    </g>
    <g id="ytick_7">
     <g id="line2d_19">
      <g>
       <use xlink:href="#me61a78ca0c" x="83.27" y="190.735" style="stroke: #000000; stroke-width: 0.8"/>
      </g>
     </g>
     <g id="text_14">
      <!-- GPL21179 -->
      <g transform="translate(25.1075 194.534219) scale(0.1 -0.1)">
       <use xlink:href="#DejaVuSans-47"/>
       <use xlink:href="#DejaVuSans-50" transform="translate(77.490234 0)"/>
       <use xlink:href="#DejaVuSans-4c" transform="translate(137.792969 0)"/>
       <use xlink:href="#DejaVuSans-32" transform="translate(193.505859 0)"/>
       <use xlink:href="#DejaVuSans-31" transform="translate(257.128906 0)"/>
       <use xlink:href="#DejaVuSans-31" transform="translate(320.751953 0)"/>
       <use xlink:href="#DejaVuSans-37" transform="translate(384.375 0)"/>
       <use xlink:href="#DejaVuSans-39" transform="translate(447.998047 0)"/>
      </g>
     </g>
    </g>
    <g id="ytick_8">
     <g id="line2d_20">
      <g>
       <use xlink:href="#me61a78ca0c" x="83.27" y="216.165" style="stroke: #000000; stroke-width: 0.8"/>
      </g>
     </g>
     <g id="text_15">
      <!-- GPL28290 -->
      <g transform="translate(25.1075 219.964219) scale(0.1 -0.1)">
       <use xlink:href="#DejaVuSans-47"/>
       <use xlink:href="#DejaVuSans-50" transform="translate(77.490234 0)"/>
       <use xlink:href="#DejaVuSans-4c" transform="translate(137.792969 0)"/>
       <use xlink:href="#DejaVuSans-32" transform="translate(193.505859 0)"/>
       <use xlink:href="#DejaVuSans-38" transform="translate(257.128906 0)"/>
       <use xlink:href="#DejaVuSans-32" transform="translate(320.751953 0)"/>
       <use xlink:href="#DejaVuSans-39" transform="translate(384.375 0)"/>
       <use xlink:href="#DejaVuSans-30" transform="translate(447.998047 0)"/>
      </g>
     </g>
    </g>
    <g id="ytick_9">
     <g id="line2d_21">
      <g>
       <use xlink:href="#me61a78ca0c" x="83.27" y="241.595" style="stroke: #000000; stroke-width: 0.8"/>
      </g>
     </g>
     <g id="text_16">
      <!-- GPL23157 -->
      <g transform="translate(25.1075 245.394219) scale(0.1 -0.1)">
       <use xlink:href="#DejaVuSans-47"/>
       <use xlink:href="#DejaVuSans-50" transform="translate(77.490234 0)"/>
       <use xlink:href="#DejaVuSans-4c" transform="translate(137.792969 0)"/>
       <use xlink:href="#DejaVuSans-32" transform="translate(193.505859 0)"/>
       <use xlink:href="#DejaVuSans-33" transform="translate(257.128906 0)"/>
       <use xlink:href="#DejaVuSans-31" transform="translate(320.751953 0)"/>
       <use xlink:href="#DejaVuSans-35" transform="translate(384.375 0)"/>
       <use xlink:href="#DejaVuSans-37" transform="translate(447.998047 0)"/>
      </g>
     </g>
    </g>
    <g id="ytick_10">
     <g id="line2d_22">
      <g>
       <use xlink:href="#me61a78ca0c" x="83.27" y="267.025" style="stroke: #000000; stroke-width: 0.8"/>
      </g>
     </g>
     <g id="text_17">
      <!-- GPL24025 -->
      <g transform="translate(25.1075 270.824219) scale(0.1 -0.1)">
       <defs>
        <path id="DejaVuSans-34" d="M 2419 4116 
L 825 1625 
L 2419 1625 
L 2419 4116 
z
M 2253 4666 
L 3047 4666 
L 3047 1625 
L 3713 1625 
L 3713 1100 
L 3047 1100 
L 3047 0 
L 2419 0 
L 2419 1100 
L 313 1100 
L 313 1709 
L 2253 4666 
z
" transform="scale(0.015625)"/>
       </defs>
       <use xlink:href="#DejaVuSans-47"/>
       <use xlink:href="#DejaVuSans-50" transform="translate(77.490234 0)"/>
       <use xlink:href="#DejaVuSans-4c" transform="translate(137.792969 0)"/>
       <use xlink:href="#DejaVuSans-32" transform="translate(193.505859 0)"/>
       <use xlink:href="#DejaVuSans-34" transform="translate(257.128906 0)"/>
       <use xlink:href="#DejaVuSans-30" transform="translate(320.751953 0)"/>
       <use xlink:href="#DejaVuSans-32" transform="translate(384.375 0)"/>
       <use xlink:href="#DejaVuSans-35" transform="translate(447.998047 0)"/>
      </g>
     </g>
    </g>
    <g id="ytick_11">
     <g id="line2d_23">
      <g>
       <use xlink:href="#me61a78ca0c" x="83.27" y="292.455" style="stroke: #000000; stroke-width: 0.8"/>
      </g>
     </g>
     <g id="text_18">
      <!-- GPL24270 -->
      <g transform="translate(25.1075 296.254219) scale(0.1 -0.1)">
       <use xlink:href="#DejaVuSans-47"/>
       <use xlink:href="#DejaVuSans-50" transform="translate(77.490234 0)"/>
       <use xlink:href="#DejaVuSans-4c" transform="translate(137.792969 0)"/>
       <use xlink:href="#DejaVuSans-32" transform="translate(193.505859 0)"/>
       <use xlink:href="#DejaVuSans-34" transform="translate(257.128906 0)"/>
       <use xlink:href="#DejaVuSans-32" transform="translate(320.751953 0)"/>
       <use xlink:href="#DejaVuSans-37" transform="translate(384.375 0)"/>
       <use xlink:href="#DejaVuSans-30" transform="translate(447.998047 0)"/>
      </g>
     </g>
    </g>
    <g id="ytick_12">
     <g id="line2d_24">
      <g>
       <use xlink:href="#me61a78ca0c" x="83.27" y="317.885" style="stroke: #000000; stroke-width: 0.8"/>
      </g>
     </g>
     <g id="text_19">
      <!-- GPL30821 -->
      <g transform="translate(25.1075 321.684219) scale(0.1 -0.1)">
       <use xlink:href="#DejaVuSans-47"/>
       <use xlink:href="#DejaVuSans-50" transform="translate(77.490234 0)"/>
       <use xlink:href="#DejaVuSans-4c" transform="translate(137.792969 0)"/>
       <use xlink:href="#DejaVuSans-33" transform="translate(193.505859 0)"/>
       <use xlink:href="#DejaVuSans-30" transform="translate(257.128906 0)"/>
       <use xlink:href="#DejaVuSans-38" transform="translate(320.751953 0)"/>
       <use xlink:href="#DejaVuSans-32" transform="translate(384.375 0)"/>
       <use xlink:href="#DejaVuSans-31" transform="translate(447.998047 0)"/>
      </g>
     </g>
    </g>
    <g id="ytick_13">
     <g id="line2d_25">
      <g>
       <use xlink:href="#me61a78ca0c" x="83.27" y="343.315" style="stroke: #000000; stroke-width: 0.8"/>
      </g>
     </g>
     <g id="text_20">
      <!-- GPL17311 -->
      <g transform="translate(25.1075 347.114219) scale(0.1 -0.1)">
       <use xlink:href="#DejaVuSans-47"/>
       <use xlink:href="#DejaVuSans-50" transform="translate(77.490234 0)"/>
       <use xlink:href="#DejaVuSans-4c" transform="translate(137.792969 0)"/>
       <use xlink:href="#DejaVuSans-31" transform="translate(193.505859 0)"/>
       <use xlink:href="#DejaVuSans-37" transform="translate(257.128906 0)"/>
       <use xlink:href="#DejaVuSans-33" transform="translate(320.751953 0)"/>
       <use xlink:href="#DejaVuSans-31" transform="translate(384.375 0)"/>
       <use xlink:href="#DejaVuSans-31" transform="translate(447.998047 0)"/>
      </g>
     </g>
    </g>
    <g id="ytick_14">
     <g id="line2d_26">
      <g>
       <use xlink:href="#me61a78ca0c" x="83.27" y="368.745" style="stroke: #000000; stroke-width: 0.8"/>
      </g>
     </g>
     <g id="text_21">
      <!-- GPL19080 -->
      <g transform="translate(25.1075 372.544219) scale(0.1 -0.1)">
       <use xlink:href="#DejaVuSans-47"/>
       <use xlink:href="#DejaVuSans-50" transform="translate(77.490234 0)"/>
       <use xlink:href="#DejaVuSans-4c" transform="translate(137.792969 0)"/>
       <use xlink:href="#DejaVuSans-31" transform="translate(193.505859 0)"/>
       <use xlink:href="#DejaVuSans-39" transform="translate(257.128906 0)"/>
       <use xlink:href="#DejaVuSans-30" transform="translate(320.751953 0)"/>
       <use xlink:href="#DejaVuSans-38" transform="translate(384.375 0)"/>
       <use xlink:href="#DejaVuSans-30" transform="translate(447.998047 0)"/>
      </g>
     </g>
    </g>
    <g id="ytick_15">
     <g id="line2d_27">
      <g>
       <use xlink:href="#me61a78ca0c" x="83.27" y="394.175" style="stroke: #000000; stroke-width: 0.8"/>
      </g>
     </g>
     <g id="text_22">
      <!-- GPL28992 -->
      <g transform="translate(25.1075 397.974219) scale(0.1 -0.1)">
       <use xlink:href="#DejaVuSans-47"/>
       <use xlink:href="#DejaVuSans-50" transform="translate(77.490234 0)"/>
       <use xlink:href="#DejaVuSans-4c" transform="translate(137.792969 0)"/>
       <use xlink:href="#DejaVuSans-32" transform="translate(193.505859 0)"/>
       <use xlink:href="#DejaVuSans-38" transform="translate(257.128906 0)"/>
       <use xlink:href="#DejaVuSans-39" transform="translate(320.751953 0)"/>
       <use xlink:href="#DejaVuSans-39" transform="translate(384.375 0)"/>
       <use xlink:href="#DejaVuSans-32" transform="translate(447.998047 0)"/>
      </g>
     </g>
    </g>
    <g id="ytick_16">
     <g id="line2d_28">
      <g>
       <use xlink:href="#me61a78ca0c" x="83.27" y="419.605" style="stroke: #000000; stroke-width: 0.8"/>
      </g>
     </g>
     <g id="text_23">
      <!-- GPL31102 -->
      <g transform="translate(25.1075 423.404219) scale(0.1 -0.1)">
       <use xlink:href="#DejaVuSans-47"/>
       <use xlink:href="#DejaVuSans-50" transform="translate(77.490234 0)"/>
       <use xlink:href="#DejaVuSans-4c" transform="translate(137.792969 0)"/>
       <use xlink:href="#DejaVuSans-33" transform="translate(193.505859 0)"/>
       <use xlink:href="#DejaVuSans-31" transform="translate(257.128906 0)"/>
       <use xlink:href="#DejaVuSans-31" transform="translate(320.751953 0)"/>
       <use xlink:href="#DejaVuSans-30" transform="translate(384.375 0)"/>
       <use xlink:href="#DejaVuSans-32" transform="translate(447.998047 0)"/>
      </g>
     </g>
    </g>
    <g id="ytick_17">
     <g id="line2d_29">
      <g>
       <use xlink:href="#me61a78ca0c" x="83.27" y="445.035" style="stroke: #000000; stroke-width: 0.8"/>
      </g>
     </g>
     <g id="text_24">
      <!-- GPL34544 -->
      <g transform="translate(25.1075 448.834219) scale(0.1 -0.1)">
       <use xlink:href="#DejaVuSans-47"/>
       <use xlink:href="#DejaVuSans-50" transform="translate(77.490234 0)"/>
       <use xlink:href="#DejaVuSans-4c" transform="translate(137.792969 0)"/>
       <use xlink:href="#DejaVuSans-33" transform="translate(193.505859 0)"/>
       <use xlink:href="#DejaVuSans-34" transform="translate(257.128906 0)"/>
       <use xlink:href="#DejaVuSans-35" transform="translate(320.751953 0)"/>
       <use xlink:href="#DejaVuSans-34" transform="translate(384.375 0)"/>
       <use xlink:href="#DejaVuSans-34" transform="translate(447.998047 0)"/>
      </g>
     </g>
    </g>
    <g id="ytick_18">
     <g id="line2d_30">
      <g>
       <use xlink:href="#me61a78ca0c" x="83.27" y="470.465" style="stroke: #000000; stroke-width: 0.8"/>
      </g>
     </g>
     <g id="text_25">
      <!-- GPL29756 -->
      <g transform="translate(25.1075 474.264219) scale(0.1 -0.1)">
       <use xlink:href="#DejaVuSans-47"/>
       <use xlink:href="#DejaVuSans-50" transform="translate(77.490234 0)"/>
       <use xlink:href="#DejaVuSans-4c" transform="translate(137.792969 0)"/>
       <use xlink:href="#DejaVuSans-32" transform="translate(193.505859 0)"/>
       <use xlink:href="#DejaVuSans-39" transform="translate(257.128906 0)"/>
       <use xlink:href="#DejaVuSans-37" transform="translate(320.751953 0)"/>
       <use xlink:href="#DejaVuSans-35" transform="translate(384.375 0)"/>
       <use xlink:href="#DejaVuSans-36" transform="translate(447.998047 0)"/>
      </g>
     </g>
    </g>
    <g id="ytick_19">
     <g id="line2d_31">
      <g>
       <use xlink:href="#me61a78ca0c" x="83.27" y="495.895" style="stroke: #000000; stroke-width: 0.8"/>
      </g>
     </g>
     <g id="text_26">
      <!-- GPL17970 -->
      <g transform="translate(25.1075 499.694219) scale(0.1 -0.1)">
       <use xlink:href="#DejaVuSans-47"/>
       <use xlink:href="#DejaVuSans-50" transform="translate(77.490234 0)"/>
       <use xlink:href="#DejaVuSans-4c" transform="translate(137.792969 0)"/>
       <use xlink:href="#DejaVuSans-31" transform="translate(193.505859 0)"/>
       <use xlink:href="#DejaVuSans-37" transform="translate(257.128906 0)"/>
       <use xlink:href="#DejaVuSans-39" transform="translate(320.751953 0)"/>
       <use xlink:href="#DejaVuSans-37" transform="translate(384.375 0)"/>
       <use xlink:href="#DejaVuSans-30" transform="translate(447.998047 0)"/>
      </g>
     </g>
    </g>
    <g id="ytick_20">
     <g id="line2d_32">
      <g>
       <use xlink:href="#me61a78ca0c" x="83.27" y="521.325" style="stroke: #000000; stroke-width: 0.8"/>
      </g>
     </g>
     <g id="text_27">
      <!-- GPL9302 -->
      <g transform="translate(31.47 525.124219) scale(0.1 -0.1)">
       <use xlink:href="#DejaVuSans-47"/>
       <use xlink:href="#DejaVuSans-50" transform="translate(77.490234 0)"/>
       <use xlink:href="#DejaVuSans-4c" transform="translate(137.792969 0)"/>
       <use xlink:href="#DejaVuSans-39" transform="translate(193.505859 0)"/>
       <use xlink:href="#DejaVuSans-33" transform="translate(257.128906 0)"/>
       <use xlink:href="#DejaVuSans-30" transform="translate(320.751953 0)"/>
       <use xlink:href="#DejaVuSans-32" transform="translate(384.375 0)"/>
      </g>
     </g>
    </g>
    <g id="text_28">
     <!-- Platform (GPL) -->
     <g transform="translate(19.027813 315.991562) rotate(-90) scale(0.1 -0.1)">
      <defs>
       <path id="DejaVuSans-66" d="M 2375 4863 
L 2375 4384 
L 1825 4384 
Q 1516 4384 1395 4259 
Q 1275 4134 1275 3809 
L 1275 3500 
L 2222 3500 
L 2222 3053 
L 1275 3053 
L 1275 0 
L 697 0 
L 697 3053 
L 147 3053 
L 147 3500 
L 697 3500 
L 697 3744 
Q 697 4328 969 4595 
Q 1241 4863 1831 4863 
L 2375 4863 
z
" transform="scale(0.015625)"/>
       <path id="DejaVuSans-72" d="M 2631 2963 
Q 2534 3019 2420 3045 
Q 2306 3072 2169 3072 
Q 1681 3072 1420 2755 
Q 1159 2438 1159 1844 
L 1159 0 
L 581 0 
L 581 3500 
L 1159 3500 
L 1159 2956 
Q 1341 3275 1631 3429 
Q 1922 3584 2338 3584 
Q 2397 3584 2469 3576 
Q 2541 3569 2628 3553 
L 2631 2963 
z
" transform="scale(0.015625)"/>
       <path id="DejaVuSans-28" d="M 1984 4856 
Q 1566 4138 1362 3434 
Q 1159 2731 1159 2009 
Q 1159 1288 1364 580 
Q 1569 -128 1984 -844 
L 1484 -844 
Q 1016 -109 783 600 
Q 550 1309 550 2009 
Q 550 2706 781 3412 
Q 1013 4119 1484 4856 
L 1984 4856 
z
" transform="scale(0.015625)"/>
       <path id="DejaVuSans-29" d="M 513 4856 
L 1013 4856 
Q 1481 4119 1714 3412 
Q 1947 2706 1947 2009 
Q 1947 1309 1714 600 
Q 1481 -109 1013 -844 
L 513 -844 
Q 928 -128 1133 580 
Q 1338 1288 1338 2009 
Q 1338 2731 1133 3434 
Q 928 4138 513 4856 
z
" transform="scale(0.015625)"/>
      </defs>
      <use xlink:href="#DejaVuSans-50"/>
      <use xlink:href="#DejaVuSans-6c" transform="translate(60.302734 0)"/>
      <use xlink:href="#DejaVuSans-61" transform="translate(88.085938 0)"/>
      <use xlink:href="#DejaVuSans-74" transform="translate(149.365234 0)"/>
      <use xlink:href="#DejaVuSans-66" transform="translate(188.574219 0)"/>
      <use xlink:href="#DejaVuSans-6f" transform="translate(223.779297 0)"/>
      <use xlink:href="#DejaVuSans-72" transform="translate(284.960938 0)"/>
      <use xlink:href="#DejaVuSans-6d" transform="translate(324.324219 0)"/>
      <use xlink:href="#DejaVuSans-20" transform="translate(421.736328 0)"/>
      <use xlink:href="#DejaVuSans-28" transform="translate(453.523438 0)"/>
      <use xlink:href="#DejaVuSans-47" transform="translate(492.537109 0)"/>
      <use xlink:href="#DejaVuSans-50" transform="translate(570.027344 0)"/>
      <use xlink:href="#DejaVuSans-4c" transform="translate(630.330078 0)"/>
      <use xlink:href="#DejaVuSans-29" transform="translate(686.042969 0)"/>
     </g>
    </g>
   </g>
   <g id="line2d_33">
    <path clip-path="url(#pb0489a296e)" style="fill: none; stroke: #424242; stroke-width: 2.25; stroke-linecap: square"/>
   </g>
   <g id="line2d_34">
    <path clip-path="url(#pb0489a296e)" style="fill: none; stroke: #424242; stroke-width: 2.25; stroke-linecap: square"/>
   </g>
   <g id="line2d_35">
    <path clip-path="url(#pb0489a296e)" style="fill: none; stroke: #424242; stroke-width: 2.25; stroke-linecap: square"/>
   </g>
   <g id="line2d_36">
    <path clip-path="url(#pb0489a296e)" style="fill: none; stroke: #424242; stroke-width: 2.25; stroke-linecap: square"/>
   </g>
   <g id="line2d_37">
    <path clip-path="url(#pb0489a296e)" style="fill: none; stroke: #424242; stroke-width: 2.25; stroke-linecap: square"/>
   </g>
   <g id="line2d_38">
    <path clip-path="url(#pb0489a296e)" style="fill: none; stroke: #424242; stroke-width: 2.25; stroke-linecap: square"/>
   </g>
   <g id="line2d_39">
    <path clip-path="url(#pb0489a296e)" style="fill: none; stroke: #424242; stroke-width: 2.25; stroke-linecap: square"/>
   </g>
   <g id="line2d_40">
    <path clip-path="url(#pb0489a296e)" style="fill: none; stroke: #424242; stroke-width: 2.25; stroke-linecap: square"/>
   </g>
   <g id="line2d_41">
    <path clip-path="url(#pb0489a296e)" style="fill: none; stroke: #424242; stroke-width: 2.25; stroke-linecap: square"/>
   </g>
   <g id="line2d_42">
    <path clip-path="url(#pb0489a296e)" style="fill: none; stroke: #424242; stroke-width: 2.25; stroke-linecap: square"/>
   </g>
   <g id="line2d_43">
    <path clip-path="url(#pb0489a296e)" style="fill: none; stroke: #424242; stroke-width: 2.25; stroke-linecap: square"/>
   </g>
   <g id="line2d_44">
    <path clip-path="url(#pb0489a296e)" style="fill: none; stroke: #424242; stroke-width: 2.25; stroke-linecap: square"/>
   </g>
   <g id="line2d_45">
    <path clip-path="url(#pb0489a296e)" style="fill: none; stroke: #424242; stroke-width: 2.25; stroke-linecap: square"/>
   </g>
   <g id="line2d_46">
    <path clip-path="url(#pb0489a296e)" style="fill: none; stroke: #424242; stroke-width: 2.25; stroke-linecap: square"/>
   </g>
   <g id="line2d_47">
    <path clip-path="url(#pb0489a296e)" style="fill: none; stroke: #424242; stroke-width: 2.25; stroke-linecap: square"/>
   </g>
   <g id="line2d_48">
    <path clip-path="url(#pb0489a296e)" style="fill: none; stroke: #424242; stroke-width: 2.25; stroke-linecap: square"/>
   </g>
   <g id="line2d_49">
    <path clip-path="url(#pb0489a296e)" style="fill: none; stroke: #424242; stroke-width: 2.25; stroke-linecap: square"/>
   </g>
   <g id="line2d_50">
    <path clip-path="url(#pb0489a296e)" style="fill: none; stroke: #424242; stroke-width: 2.25; stroke-linecap: square"/>
   </g>
   <g id="line2d_51">
    <path clip-path="url(#pb0489a296e)" style="fill: none; stroke: #424242; stroke-width: 2.25; stroke-linecap: square"/>
   </g>
   <g id="line2d_52">
    <path clip-path="url(#pb0489a296e)" style="fill: none; stroke: #424242; stroke-width: 2.25; stroke-linecap: square"/>
   </g>
   <g id="patch_23">
    <path d="M 83.27 534.04 
L 83.27 25.44 
" style="fill: none; stroke: #000000; stroke-width: 0.8; stroke-linejoin: miter; stroke-linecap: square"/>
   </g>
   <g id="patch_24">
    <path d="M 709.2 534.04 
L 709.2 25.44 
" style="fill: none; stroke: #000000; stroke-width: 0.8; stroke-linejoin: miter; stroke-linecap: square"/>
   </g>
   <g id="patch_25">
    <path d="M 83.27 534.04 
L 709.2 534.04 
" style="fill: none; stroke: #000000; stroke-width: 0.8; stroke-linejoin: miter; stroke-linecap: square"/>
   </g>
   <g id="patch_26">
    <path d="M 83.27 25.44 
L 709.2 25.44 
" style="fill: none; stroke: #000000; stroke-width: 0.8; stroke-linejoin: miter; stroke-linecap: square"/>
   </g>
   <g id="text_29">
    <!-- Total Samples per Platform (Top 20) -->
    <g transform="translate(289.3525 19.44) scale(0.12 -0.12)">
     <use xlink:href="#DejaVuSans-54"/>
     <use xlink:href="#DejaVuSans-6f" transform="translate(44.083984 0)"/>
     <use xlink:href="#DejaVuSans-74" transform="translate(105.265625 0)"/>
     <use xlink:href="#DejaVuSans-61" transform="translate(144.474609 0)"/>
     <use xlink:href="#DejaVuSans-6c" transform="translate(205.753906 0)"/>
     <use xlink:href="#DejaVuSans-20" transform="translate(233.537109 0)"/>
     <use xlink:href="#DejaVuSans-53" transform="translate(265.324219 0)"/>
     <use xlink:href="#DejaVuSans-61" transform="translate(328.800781 0)"/>
     <use xlink:href="#DejaVuSans-6d" transform="translate(390.080078 0)"/>
     <use xlink:href="#DejaVuSans-70" transform="translate(487.492188 0)"/>
     <use xlink:href="#DejaVuSans-6c" transform="translate(550.96875 0)"/>
     <use xlink:href="#DejaVuSans-65" transform="translate(578.751953 0)"/>
     <use xlink:href="#DejaVuSans-73" transform="translate(640.275391 0)"/>
     <use xlink:href="#DejaVuSans-20" transform="translate(692.375 0)"/>
     <use xlink:href="#DejaVuSans-70" transform="translate(724.162109 0)"/>
     <use xlink:href="#DejaVuSans-65" transform="translate(787.638672 0)"/>
     <use xlink:href="#DejaVuSans-72" transform="translate(849.162109 0)"/>
     <use xlink:href="#DejaVuSans-20" transform="translate(890.275391 0)"/>
     <use xlink:href="#DejaVuSans-50" transform="translate(922.0625 0)"/>
     <use xlink:href="#DejaVuSans-6c" transform="translate(982.365234 0)"/>
     <use xlink:href="#DejaVuSans-61" transform="translate(1010.148438 0)"/>
     <use xlink:href="#DejaVuSans-74" transform="translate(1071.427734 0)"/>
     <use xlink:href="#DejaVuSans-66" transform="translate(1110.636719 0)"/>
     <use xlink:href="#DejaVuSans-6f" transform="translate(1145.841797 0)"/>
     <use xlink:href="#DejaVuSans-72" transform="translate(1207.023438 0)"/>
     <use xlink:href="#DejaVuSans-6d" transform="translate(1246.386719 0)"/>
     <use xlink:href="#DejaVuSans-20" transform="translate(1343.798828 0)"/>
     <use xlink:href="#DejaVuSans-28" transform="translate(1375.585938 0)"/>
     <use xlink:href="#DejaVuSans-54" transform="translate(1414.599609 0)"/>
     <use xlink:href="#DejaVuSans-6f" transform="translate(1458.683594 0)"/>
     <use xlink:href="#DejaVuSans-70" transform="translate(1519.865234 0)"/>
     <use xlink:href="#DejaVuSans-20" transform="translate(1583.341797 0)"/>
     <use xlink:href="#DejaVuSans-32" transform="translate(1615.128906 0)"/>
     <use xlink:href="#DejaVuSans-30" transform="translate(1678.751953 0)"/>
     <use xlink:href="#DejaVuSans-29" transform="translate(1742.375 0)"/>
    </g>
   </g>
  </g>
 </g>
 <defs>
  <clipPath id="pb0489a296e">
   <rect x="83.27" y="25.44" width="625.93" height="508.6"/>
  </clipPath>
 </defs>
</svg>
