<?xml version="1.0" encoding="utf-8" standalone="no"?>
<!DOCTYPE svg PUBLIC "-//W3C//DTD SVG 1.1//EN"
  "http://www.w3.org/Graphics/SVG/1.1/DTD/svg11.dtd">
<svg xmlns:xlink="http://www.w3.org/1999/xlink" width="864pt" height="432pt" viewBox="0 0 864 432" xmlns="http://www.w3.org/2000/svg" version="1.1">
 <metadata>
  <rdf:RDF xmlns:dc="http://purl.org/dc/elements/1.1/" xmlns:cc="http://creativecommons.org/ns#" xmlns:rdf="http://www.w3.org/1999/02/22-rdf-syntax-ns#">
   <cc:Work>
    <dc:type rdf:resource="http://purl.org/dc/dcmitype/StillImage"/>
    <dc:date>2026-02-09T13:21:26.093389</dc:date>
    <dc:format>image/svg+xml</dc:format>
    <dc:creator>
     <cc:Agent>
      <dc:title>Matplotlib v3.10.8, https://matplotlib.org/</dc:title>
     </cc:Agent>
    </dc:creator>
   </cc:Work>
  </rdf:RDF>
 </metadata>
 <defs>
  <style type="text/css">*{stroke-linejoin: round; stroke-linecap: butt}</style>
 </defs>
 <g id="figure_1">
  <g id="patch_1">
   <path d="M 0 432 
L 864 432 
L 864 0 
L 0 0 
z
" style="fill: #ffffff"/>
  </g>
  <g id="axes_1">
   <g id="patch_2">
    <path d="M 218.7 52.291636 
C 197.228266 52.291636 175.964169 56.509471 156.118068 64.705058 
C 136.271968 72.900646 118.227697 84.91548 103.012343 100.065673 
C 87.796988 115.215866 75.704822 133.208405 67.424134 153.019149 
C 59.143446 172.829892 54.83439 194.075692 54.742237 215.547228 
C 54.650085 237.018764 58.776619 258.300768 66.886955 278.181859 
C 74.997292 298.06295 86.934573 316.158621 102.019325 331.438857 
C 117.104077 346.719093 135.044554 358.888368 154.819576 367.254003 
C 174.594598 375.619639 195.821708 380.019838 217.292651 380.204142 
C 238.763594 380.388445 260.063112 376.353287 279.978828 368.328351 
C 299.894544 360.303415 318.04128 348.443906 333.386116 333.424873 
C 348.730952 318.40584 360.977113 300.517757 369.427541 280.778821 
C 377.87797 261.039884 382.369232 239.831854 382.645683 218.3619 
C 382.922133 196.891946 378.978426 175.575306 371.039038 155.625332 
C 363.09965 135.675358 351.318133 117.47789 336.365095 102.068737 
C 321.412058 86.659583 303.576697 74.336764 283.87421 65.801697 
C 264.171724 57.266631 242.983164 52.684389 221.514595 52.315796 
L 218.7 216.250909 
z
" style="fill: #66b3ff"/>
   </g>
   <g id="patch_3">
    <path d="M 221.514588 52.315795 
C 221.04554 52.307742 220.576458 52.301702 220.107357 52.297676 
C 219.638257 52.29365 219.169141 52.291636 218.700023 52.291636 
L 218.7 216.250909 
z
" style="fill: #ff9999"/>
   </g>
   <g id="matplotlib.axis_1"/>
   <g id="matplotlib.axis_2"/>
   <g id="text_1">
    <!-- Raw Data (365) -->
    <g transform="translate(138.998809 399.35884) scale(0.1 -0.1)">
     <defs>
      <path id="DejaVuSans-52" d="M 2841 2188 
Q 3044 2119 3236 1894 
Q 3428 1669 3622 1275 
L 4263 0 
L 3584 0 
L 2988 1197 
Q 2756 1666 2539 1819 
Q 2322 1972 1947 1972 
L 1259 1972 
L 1259 0 
L 628 0 
L 628 4666 
L 2053 4666 
Q 2853 4666 3247 4331 
Q 3641 3997 3641 3322 
Q 3641 2881 3436 2590 
Q 3231 2300 2841 2188 
z
M 1259 4147 
L 1259 2491 
L 2053 2491 
Q 2509 2491 2742 2702 
Q 2975 2913 2975 3322 
Q 2975 3731 2742 3939 
Q 2509 4147 2053 4147 
L 1259 4147 
z
" transform="scale(0.015625)"/>
      <path id="DejaVuSans-61" d="M 2194 1759 
Q 1497 1759 1228 1600 
Q 959 1441 959 1056 
Q 959 750 1161 570 
Q 1363 391 1709 391 
Q 2188 391 2477 730 
Q 2766 1069 2766 1631 
L 2766 1759 
L 2194 1759 
z
M 3341 1997 
L 3341 0 
L 2766 0 
L 2766 531 
Q 2569 213 2275 61 
Q 1981 -91 1556 -91 
Q 1019 -91 701 211 
Q 384 513 384 1019 
Q 384 1609 779 1909 
Q 1175 2209 1959 2209 
L 2766 2209 
L 2766 2266 
Q 2766 2663 2505 2880 
Q 2244 3097 1772 3097 
Q 1472 3097 1187 3025 
Q 903 2953 641 2809 
L 641 3341 
Q 956 3463 1253 3523 
Q 1550 3584 1831 3584 
Q 2591 3584 2966 3190 
Q 3341 2797 3341 1997 
z
" transform="scale(0.015625)"/>
      <path id="DejaVuSans-77" d="M 269 3500 
L 844 3500 
L 1563 769 
L 2278 3500 
L 2956 3500 
L 3675 769 
L 4391 3500 
L 4966 3500 
L 4050 0 
L 3372 0 
L 2619 2869 
L 1863 0 
L 1184 0 
L 269 3500 
z
" transform="scale(0.015625)"/>
      <path id="DejaVuSans-20" transform="scale(0.015625)"/>
      <path id="DejaVuSans-44" d="M 1259 4147 
L 1259 519 
L 2022 519 
Q 2988 519 3436 956 
Q 3884 1394 3884 2338 
Q 3884 3275 3436 3711 
Q 2988 4147 2022 4147 
L 1259 4147 
z
M 628 4666 
L 1925 4666 
Q 3281 4666 3915 4102 
Q 4550 3538 4550 2338 
Q 4550 1131 3912 565 
Q 3275 0 1925 0 
L 628 0 
L 628 4666 
z
" transform="scale(0.015625)"/>
      <path id="DejaVuSans-74" d="M 1172 4494 
L 1172 3500 
L 2356 3500 
L 2356 3053 
L 1172 3053 
L 1172 1153 
Q 1172 725 1289 603 
Q 1406 481 1766 481 
L 2356 481 
L 2356 0 
L 1766 0 
Q 1100 0 847 248 
Q 594 497 594 1153 
L 594 3053 
L 172 3053 
L 172 3500 
L 594 3500 
L 594 4494 
L 1172 4494 
z
" transform="scale(0.015625)"/>
      <path id="DejaVuSans-28" d="M 1984 4856 
Q 1566 4138 1362 3434 
Q 1159 2731 1159 2009 
Q 1159 1288 1364 580 
Q 1569 -128 1984 -844 
L 1484 -844 
Q 1016 -109 783 600 
Q 550 1309 550 2009 
Q 550 2706 781 3412 
Q 1013 4119 1484 4856 
L 1984 4856 
z
" transform="scale(0.015625)"/>
      <path id="DejaVuSans-33" d="M 2597 2516 
Q 3050 2419 3304 2112 
Q 3559 1806 3559 1356 
Q 3559 666 3084 287 
Q 2609 -91 1734 -91 
Q 1441 -91 1130 -33 
Q 819 25 488 141 
L 488 750 
Q 750 597 1062 519 
Q 1375 441 1716 441 
Q 2309 441 2620 675 
Q 2931 909 2931 1356 
Q 2931 1769 2642 2001 
Q 2353 2234 1838 2234 
L 1294 2234 
L 1294 2753 
L 1863 2753 
Q 2328 2753 2575 2939 
Q 2822 3125 2822 3475 
Q 2822 3834 2567 4026 
Q 2313 4219 1838 4219 
Q 1578 4219 1281 4162 
Q 984 4106 628 3988 
L 628 4550 
Q 988 4650 1302 4700 
Q 1616 4750 1894 4750 
Q 2613 4750 3031 4423 
Q 3450 4097 3450 3541 
Q 3450 3153 3228 2886 
Q 3006 2619 2597 2516 
z
" transform="scale(0.015625)"/>
      <path id="DejaVuSans-36" d="M 2113 2584 
Q 1688 2584 1439 2293 
Q 1191 2003 1191 1497 
Q 1191 994 1439 701 
Q 1688 409 2113 409 
Q 2538 409 2786 701 
Q 3034 994 3034 1497 
Q 3034 2003 2786 2293 
Q 2538 2584 2113 2584 
z
M 3366 4563 
L 3366 3988 
Q 3128 4100 2886 4159 
Q 2644 4219 2406 4219 
Q 1781 4219 1451 3797 
Q 1122 3375 1075 2522 
Q 1259 2794 1537 2939 
Q 1816 3084 2150 3084 
Q 2853 3084 3261 2657 
Q 3669 2231 3669 1497 
Q 3669 778 3244 343 
Q 2819 -91 2113 -91 
Q 1303 -91 875 529 
Q 447 1150 447 2328 
Q 447 3434 972 4092 
Q 1497 4750 2381 4750 
Q 2619 4750 2861 4703 
Q 3103 4656 3366 4563 
z
" transform="scale(0.015625)"/>
      <path id="DejaVuSans-35" d="M 691 4666 
L 3169 4666 
L 3169 4134 
L 1269 4134 
L 1269 2991 
Q 1406 3038 1543 3061 
Q 1681 3084 1819 3084 
Q 2600 3084 3056 2656 
Q 3513 2228 3513 1497 
Q 3513 744 3044 326 
Q 2575 -91 1722 -91 
Q 1428 -91 1123 -41 
Q 819 9 494 109 
L 494 744 
Q 775 591 1075 516 
Q 1375 441 1709 441 
Q 2250 441 2565 725 
Q 2881 1009 2881 1497 
Q 2881 1984 2565 2268 
Q 2250 2553 1709 2553 
Q 1456 2553 1204 2497 
Q 953 2441 691 2322 
L 691 4666 
z
" transform="scale(0.015625)"/>
      <path id="DejaVuSans-29" d="M 513 4856 
L 1013 4856 
Q 1481 4119 1714 3412 
Q 1947 2706 1947 2009 
Q 1947 1309 1714 600 
Q 1481 -109 1013 -844 
L 513 -844 
Q 928 -128 1133 580 
Q 1338 1288 1338 2009 
Q 1338 2731 1133 3434 
Q 928 4138 513 4856 
z
" transform="scale(0.015625)"/>
     </defs>
     <use xlink:href="#DejaVuSans-52"/>
     <use xlink:href="#DejaVuSans-61" transform="translate(67.232422 0)"/>
     <use xlink:href="#DejaVuSans-77" transform="translate(128.511719 0)"/>
     <use xlink:href="#DejaVuSans-20" transform="translate(210.298828 0)"/>
     <use xlink:href="#DejaVuSans-44" transform="translate(242.085938 0)"/>
     <use xlink:href="#DejaVuSans-61" transform="translate(319.087891 0)"/>
     <use xlink:href="#DejaVuSans-74" transform="translate(380.367188 0)"/>
     <use xlink:href="#DejaVuSans-61" transform="translate(419.576172 0)"/>
     <use xlink:href="#DejaVuSans-20" transform="translate(480.855469 0)"/>
     <use xlink:href="#DejaVuSans-28" transform="translate(512.642578 0)"/>
     <use xlink:href="#DejaVuSans-33" transform="translate(551.65625 0)"/>
     <use xlink:href="#DejaVuSans-36" transform="translate(615.279297 0)"/>
     <use xlink:href="#DejaVuSans-35" transform="translate(678.902344 0)"/>
     <use xlink:href="#DejaVuSans-29" transform="translate(742.525391 0)"/>
    </g>
   </g>
   <g id="text_2">
    <!-- 99.7% -->
    <g transform="translate(201.972007 317.382224) scale(0.1 -0.1)">
     <defs>
      <path id="DejaVuSans-39" d="M 703 97 
L 703 672 
Q 941 559 1184 500 
Q 1428 441 1663 441 
Q 2288 441 2617 861 
Q 2947 1281 2994 2138 
Q 2813 1869 2534 1725 
Q 2256 1581 1919 1581 
Q 1219 1581 811 2004 
Q 403 2428 403 3163 
Q 403 3881 828 4315 
Q 1253 4750 1959 4750 
Q 2769 4750 3195 4129 
Q 3622 3509 3622 2328 
Q 3622 1225 3098 567 
Q 2575 -91 1691 -91 
Q 1453 -91 1209 -44 
Q 966 3 703 97 
z
M 1959 2075 
Q 2384 2075 2632 2365 
Q 2881 2656 2881 3163 
Q 2881 3666 2632 3958 
Q 2384 4250 1959 4250 
Q 1534 4250 1286 3958 
Q 1038 3666 1038 3163 
Q 1038 2656 1286 2365 
Q 1534 2075 1959 2075 
z
" transform="scale(0.015625)"/>
      <path id="DejaVuSans-2e" d="M 684 794 
L 1344 794 
L 1344 0 
L 684 0 
L 684 794 
z
" transform="scale(0.015625)"/>
      <path id="DejaVuSans-37" d="M 525 4666 
L 3525 4666 
L 3525 4397 
L 1831 0 
L 1172 0 
L 2766 4134 
L 525 4134 
L 525 4666 
z
" transform="scale(0.015625)"/>
      <path id="DejaVuSans-25" d="M 4653 2053 
Q 4381 2053 4226 1822 
Q 4072 1591 4072 1178 
Q 4072 772 4226 539 
Q 4381 306 4653 306 
Q 4919 306 5073 539 
Q 5228 772 5228 1178 
Q 5228 1588 5073 1820 
Q 4919 2053 4653 2053 
z
M 4653 2450 
Q 5147 2450 5437 2106 
Q 5728 1763 5728 1178 
Q 5728 594 5436 251 
Q 5144 -91 4653 -91 
Q 4153 -91 3862 251 
Q 3572 594 3572 1178 
Q 3572 1766 3864 2108 
Q 4156 2450 4653 2450 
z
M 1428 4353 
Q 1159 4353 1004 4120 
Q 850 3888 850 3481 
Q 850 3069 1003 2837 
Q 1156 2606 1428 2606 
Q 1700 2606 1854 2837 
Q 2009 3069 2009 3481 
Q 2009 3884 1853 4118 
Q 1697 4353 1428 4353 
z
M 4250 4750 
L 4750 4750 
L 1831 -91 
L 1331 -91 
L 4250 4750 
z
M 1428 4750 
Q 1922 4750 2215 4408 
Q 2509 4066 2509 3481 
Q 2509 2891 2217 2550 
Q 1925 2209 1428 2209 
Q 931 2209 642 2551 
Q 353 2894 353 3481 
Q 353 4063 643 4406 
Q 934 4750 1428 4750 
z
" transform="scale(0.015625)"/>
     </defs>
     <use xlink:href="#DejaVuSans-39"/>
     <use xlink:href="#DejaVuSans-39" transform="translate(63.623047 0)"/>
     <use xlink:href="#DejaVuSans-2e" transform="translate(127.246094 0)"/>
     <use xlink:href="#DejaVuSans-37" transform="translate(159.033203 0)"/>
     <use xlink:href="#DejaVuSans-25" transform="translate(222.65625 0)"/>
    </g>
   </g>
   <g id="text_3">
    <!-- No Raw (1) -->
    <g transform="translate(220.248093 38.661728) scale(0.1 -0.1)">
     <defs>
      <path id="DejaVuSans-4e" d="M 628 4666 
L 1478 4666 
L 3547 763 
L 3547 4666 
L 4159 4666 
L 4159 0 
L 3309 0 
L 1241 3903 
L 1241 0 
L 628 0 
L 628 4666 
z
" transform="scale(0.015625)"/>
      <path id="DejaVuSans-6f" d="M 1959 3097 
Q 1497 3097 1228 2736 
Q 959 2375 959 1747 
Q 959 1119 1226 758 
Q 1494 397 1959 397 
Q 2419 397 2687 759 
Q 2956 1122 2956 1747 
Q 2956 2369 2687 2733 
Q 2419 3097 1959 3097 
z
M 1959 3584 
Q 2709 3584 3137 3096 
Q 3566 2609 3566 1747 
Q 3566 888 3137 398 
Q 2709 -91 1959 -91 
Q 1206 -91 779 398 
Q 353 888 353 1747 
Q 353 2609 779 3096 
Q 1206 3584 1959 3584 
z
" transform="scale(0.015625)"/>
      <path id="DejaVuSans-31" d="M 794 531 
L 1825 531 
L 1825 4091 
L 703 3866 
L 703 4441 
L 1819 4666 
L 2450 4666 
L 2450 531 
L 3481 531 
L 3481 0 
L 794 0 
L 794 531 
z
" transform="scale(0.015625)"/>
     </defs>
     <use xlink:href="#DejaVuSans-4e"/>
     <use xlink:href="#DejaVuSans-6f" transform="translate(74.804688 0)"/>
     <use xlink:href="#DejaVuSans-20" transform="translate(135.986328 0)"/>
     <use xlink:href="#DejaVuSans-52" transform="translate(167.773438 0)"/>
     <use xlink:href="#DejaVuSans-61" transform="translate(235.005859 0)"/>
     <use xlink:href="#DejaVuSans-77" transform="translate(296.285156 0)"/>
     <use xlink:href="#DejaVuSans-20" transform="translate(378.072266 0)"/>
     <use xlink:href="#DejaVuSans-28" transform="translate(409.859375 0)"/>
     <use xlink:href="#DejaVuSans-31" transform="translate(448.873047 0)"/>
     <use xlink:href="#DejaVuSans-29" transform="translate(512.496094 0)"/>
    </g>
   </g>
   <g id="text_4">
    <!-- 0.3% -->
    <g transform="translate(206.842071 120.638345) scale(0.1 -0.1)">
     <defs>
      <path id="DejaVuSans-30" d="M 2034 4250 
Q 1547 4250 1301 3770 
Q 1056 3291 1056 2328 
Q 1056 1369 1301 889 
Q 1547 409 2034 409 
Q 2525 409 2770 889 
Q 3016 1369 3016 2328 
Q 3016 3291 2770 3770 
Q 2525 4250 2034 4250 
z
M 2034 4750 
Q 2819 4750 3233 4129 
Q 3647 3509 3647 2328 
Q 3647 1150 3233 529 
Q 2819 -91 2034 -91 
Q 1250 -91 836 529 
Q 422 1150 422 2328 
Q 422 3509 836 4129 
Q 1250 4750 2034 4750 
z
" transform="scale(0.015625)"/>
     </defs>
     <use xlink:href="#DejaVuSans-30"/>
     <use xlink:href="#DejaVuSans-2e" transform="translate(63.623047 0)"/>
     <use xlink:href="#DejaVuSans-33" transform="translate(95.410156 0)"/>
     <use xlink:href="#DejaVuSans-25" transform="translate(159.033203 0)"/>
    </g>
   </g>
   <g id="text_5">
    <!-- Studies with SRA Available -->
    <g transform="translate(138.992813 5.301818) scale(0.12 -0.12)">
     <defs>
      <path id="DejaVuSans-53" d="M 3425 4513 
L 3425 3897 
Q 3066 4069 2747 4153 
Q 2428 4238 2131 4238 
Q 1616 4238 1336 4038 
Q 1056 3838 1056 3469 
Q 1056 3159 1242 3001 
Q 1428 2844 1947 2747 
L 2328 2669 
Q 3034 2534 3370 2195 
Q 3706 1856 3706 1288 
Q 3706 609 3251 259 
Q 2797 -91 1919 -91 
Q 1588 -91 1214 -16 
Q 841 59 441 206 
L 441 856 
Q 825 641 1194 531 
Q 1563 422 1919 422 
Q 2459 422 2753 634 
Q 3047 847 3047 1241 
Q 3047 1584 2836 1778 
Q 2625 1972 2144 2069 
L 1759 2144 
Q 1053 2284 737 2584 
Q 422 2884 422 3419 
Q 422 4038 858 4394 
Q 1294 4750 2059 4750 
Q 2388 4750 2728 4690 
Q 3069 4631 3425 4513 
z
" transform="scale(0.015625)"/>
      <path id="DejaVuSans-75" d="M 544 1381 
L 544 3500 
L 1119 3500 
L 1119 1403 
Q 1119 906 1312 657 
Q 1506 409 1894 409 
Q 2359 409 2629 706 
Q 2900 1003 2900 1516 
L 2900 3500 
L 3475 3500 
L 3475 0 
L 2900 0 
L 2900 538 
Q 2691 219 2414 64 
Q 2138 -91 1772 -91 
Q 1169 -91 856 284 
Q 544 659 544 1381 
z
M 1991 3584 
L 1991 3584 
z
" transform="scale(0.015625)"/>
      <path id="DejaVuSans-64" d="M 2906 2969 
L 2906 4863 
L 3481 4863 
L 3481 0 
L 2906 0 
L 2906 525 
Q 2725 213 2448 61 
Q 2172 -91 1784 -91 
Q 1150 -91 751 415 
Q 353 922 353 1747 
Q 353 2572 751 3078 
Q 1150 3584 1784 3584 
Q 2172 3584 2448 3432 
Q 2725 3281 2906 2969 
z
M 947 1747 
Q 947 1113 1208 752 
Q 1469 391 1925 391 
Q 2381 391 2643 752 
Q 2906 1113 2906 1747 
Q 2906 2381 2643 2742 
Q 2381 3103 1925 3103 
Q 1469 3103 1208 2742 
Q 947 2381 947 1747 
z
" transform="scale(0.015625)"/>
      <path id="DejaVuSans-69" d="M 603 3500 
L 1178 3500 
L 1178 0 
L 603 0 
L 603 3500 
z
M 603 4863 
L 1178 4863 
L 1178 4134 
L 603 4134 
L 603 4863 
z
" transform="scale(0.015625)"/>
      <path id="DejaVuSans-65" d="M 3597 1894 
L 3597 1613 
L 953 1613 
Q 991 1019 1311 708 
Q 1631 397 2203 397 
Q 2534 397 2845 478 
Q 3156 559 3463 722 
L 3463 178 
Q 3153 47 2828 -22 
Q 2503 -91 2169 -91 
Q 1331 -91 842 396 
Q 353 884 353 1716 
Q 353 2575 817 3079 
Q 1281 3584 2069 3584 
Q 2775 3584 3186 3129 
Q 3597 2675 3597 1894 
z
M 3022 2063 
Q 3016 2534 2758 2815 
Q 2500 3097 2075 3097 
Q 1594 3097 1305 2825 
Q 1016 2553 972 2059 
L 3022 2063 
z
" transform="scale(0.015625)"/>
      <path id="DejaVuSans-73" d="M 2834 3397 
L 2834 2853 
Q 2591 2978 2328 3040 
Q 2066 3103 1784 3103 
Q 1356 3103 1142 2972 
Q 928 2841 928 2578 
Q 928 2378 1081 2264 
Q 1234 2150 1697 2047 
L 1894 2003 
Q 2506 1872 2764 1633 
Q 3022 1394 3022 966 
Q 3022 478 2636 193 
Q 2250 -91 1575 -91 
Q 1294 -91 989 -36 
Q 684 19 347 128 
L 347 722 
Q 666 556 975 473 
Q 1284 391 1588 391 
Q 1994 391 2212 530 
Q 2431 669 2431 922 
Q 2431 1156 2273 1281 
Q 2116 1406 1581 1522 
L 1381 1569 
Q 847 1681 609 1914 
Q 372 2147 372 2553 
Q 372 3047 722 3315 
Q 1072 3584 1716 3584 
Q 2034 3584 2315 3537 
Q 2597 3491 2834 3397 
z
" transform="scale(0.015625)"/>
      <path id="DejaVuSans-68" d="M 3513 2113 
L 3513 0 
L 2938 0 
L 2938 2094 
Q 2938 2591 2744 2837 
Q 2550 3084 2163 3084 
Q 1697 3084 1428 2787 
Q 1159 2491 1159 1978 
L 1159 0 
L 581 0 
L 581 4863 
L 1159 4863 
L 1159 2956 
Q 1366 3272 1645 3428 
Q 1925 3584 2291 3584 
Q 2894 3584 3203 3211 
Q 3513 2838 3513 2113 
z
" transform="scale(0.015625)"/>
      <path id="DejaVuSans-41" d="M 2188 4044 
L 1331 1722 
L 3047 1722 
L 2188 4044 
z
M 1831 4666 
L 2547 4666 
L 4325 0 
L 3669 0 
L 3244 1197 
L 1141 1197 
L 716 0 
L 50 0 
L 1831 4666 
z
" transform="scale(0.015625)"/>
      <path id="DejaVuSans-76" d="M 191 3500 
L 800 3500 
L 1894 563 
L 2988 3500 
L 3597 3500 
L 2284 0 
L 1503 0 
L 191 3500 
z
" transform="scale(0.015625)"/>
      <path id="DejaVuSans-6c" d="M 603 4863 
L 1178 4863 
L 1178 0 
L 603 0 
L 603 4863 
z
" transform="scale(0.015625)"/>
      <path id="DejaVuSans-62" d="M 3116 1747 
Q 3116 2381 2855 2742 
Q 2594 3103 2138 3103 
Q 1681 3103 1420 2742 
Q 1159 2381 1159 1747 
Q 1159 1113 1420 752 
Q 1681 391 2138 391 
Q 2594 391 2855 752 
Q 3116 1113 3116 1747 
z
M 1159 2969 
Q 1341 3281 1617 3432 
Q 1894 3584 2278 3584 
Q 2916 3584 3314 3078 
Q 3713 2572 3713 1747 
Q 3713 922 3314 415 
Q 2916 -91 2278 -91 
Q 1894 -91 1617 61 
Q 1341 213 1159 525 
L 1159 0 
L 581 0 
L 581 4863 
L 1159 4863 
L 1159 2969 
z
" transform="scale(0.015625)"/>
     </defs>
     <use xlink:href="#DejaVuSans-53"/>
     <use xlink:href="#DejaVuSans-74" transform="translate(63.476562 0)"/>
     <use xlink:href="#DejaVuSans-75" transform="translate(102.685547 0)"/>
     <use xlink:href="#DejaVuSans-64" transform="translate(166.064453 0)"/>
     <use xlink:href="#DejaVuSans-69" transform="translate(229.541016 0)"/>
     <use xlink:href="#DejaVuSans-65" transform="translate(257.324219 0)"/>
     <use xlink:href="#DejaVuSans-73" transform="translate(318.847656 0)"/>
     <use xlink:href="#DejaVuSans-20" transform="translate(370.947266 0)"/>
     <use xlink:href="#DejaVuSans-77" transform="translate(402.734375 0)"/>
     <use xlink:href="#DejaVuSans-69" transform="translate(484.521484 0)"/>
     <use xlink:href="#DejaVuSans-74" transform="translate(512.304688 0)"/>
     <use xlink:href="#DejaVuSans-68" transform="translate(551.513672 0)"/>
     <use xlink:href="#DejaVuSans-20" transform="translate(614.892578 0)"/>
     <use xlink:href="#DejaVuSans-53" transform="translate(646.679688 0)"/>
     <use xlink:href="#DejaVuSans-52" transform="translate(710.15625 0)"/>
     <use xlink:href="#DejaVuSans-41" transform="translate(775.638672 0)"/>
     <use xlink:href="#DejaVuSans-20" transform="translate(844.046875 0)"/>
     <use xlink:href="#DejaVuSans-41" transform="translate(875.833984 0)"/>
     <use xlink:href="#DejaVuSans-76" transform="translate(938.367188 0)"/>
     <use xlink:href="#DejaVuSans-61" transform="translate(997.546875 0)"/>
     <use xlink:href="#DejaVuSans-69" transform="translate(1058.826172 0)"/>
     <use xlink:href="#DejaVuSans-6c" transform="translate(1086.609375 0)"/>
     <use xlink:href="#DejaVuSans-61" transform="translate(1114.392578 0)"/>
     <use xlink:href="#DejaVuSans-62" transform="translate(1175.671875 0)"/>
     <use xlink:href="#DejaVuSans-6c" transform="translate(1239.148438 0)"/>
     <use xlink:href="#DejaVuSans-65" transform="translate(1266.931641 0)"/>
    </g>
   </g>
  </g>
  <g id="axes_2">
   <g id="patch_4">
    <path d="M 645.3 52.291636 
C 645.200648 52.291636 645.101295 52.291727 645.001943 52.291907 
C 644.902591 52.292088 644.803239 52.292359 644.703887 52.29272 
L 645.3 216.250909 
z
" style="fill: #99ff99"/>
   </g>
   <g id="patch_5">
    <path d="M 644.703896 52.292721 
C 623.185641 52.370952 601.891777 56.684588 582.039552 64.987034 
C 562.187332 73.28948 544.162374 85.419466 528.995052 100.683597 
C 513.827729 115.947728 501.812651 134.049529 493.636684 153.95418 
C 485.460717 173.858831 481.282658 195.17969 481.341333 216.698006 
C 481.400009 238.216324 485.694285 259.51408 493.97869 279.373845 
C 502.263096 299.233609 514.376683 317.269571 529.627025 332.450761 
C 544.877367 347.631951 562.968203 359.663458 582.865407 367.857524 
C 602.762611 376.05159 624.079671 380.249019 645.598031 380.209908 
C 667.116393 380.170798 688.418046 375.895891 708.285331 367.629546 
C 728.152615 359.3632 746.199591 347.266011 761.394639 332.029478 
C 776.589687 316.792945 788.637641 298.713055 796.849786 278.823307 
C 805.061932 258.93356 809.27876 237.620253 809.259204 216.101866 
C 809.239639 194.583477 804.984092 173.277949 796.735807 153.403159 
C 788.487522 133.528369 776.406731 115.470408 761.184017 100.261522 
C 745.961303 85.052636 727.892367 72.988264 708.010086 64.758049 
C 688.127811 56.527833 666.81842 52.291636 645.300023 52.291636 
L 645.3 216.250909 
z
" style="fill: #ffcc99"/>
   </g>
   <g id="matplotlib.axis_3"/>
   <g id="matplotlib.axis_4"/>
   <g id="text_6">
    <!-- Raw Data (10363) -->
    <g transform="translate(554.094014 38.655382) scale(0.1 -0.1)">
     <use xlink:href="#DejaVuSans-52"/>
     <use xlink:href="#DejaVuSans-61" transform="translate(67.232422 0)"/>
     <use xlink:href="#DejaVuSans-77" transform="translate(128.511719 0)"/>
     <use xlink:href="#DejaVuSans-20" transform="translate(210.298828 0)"/>
     <use xlink:href="#DejaVuSans-44" transform="translate(242.085938 0)"/>
     <use xlink:href="#DejaVuSans-61" transform="translate(319.087891 0)"/>
     <use xlink:href="#DejaVuSans-74" transform="translate(380.367188 0)"/>
     <use xlink:href="#DejaVuSans-61" transform="translate(419.576172 0)"/>
     <use xlink:href="#DejaVuSans-20" transform="translate(480.855469 0)"/>
     <use xlink:href="#DejaVuSans-28" transform="translate(512.642578 0)"/>
     <use xlink:href="#DejaVuSans-31" transform="translate(551.65625 0)"/>
     <use xlink:href="#DejaVuSans-30" transform="translate(615.279297 0)"/>
     <use xlink:href="#DejaVuSans-33" transform="translate(678.902344 0)"/>
     <use xlink:href="#DejaVuSans-36" transform="translate(742.525391 0)"/>
     <use xlink:href="#DejaVuSans-33" transform="translate(806.148438 0)"/>
     <use xlink:href="#DejaVuSans-29" transform="translate(869.771484 0)"/>
    </g>
   </g>
   <g id="text_7">
    <!-- 0.1% -->
    <g transform="translate(632.418823 120.634883) scale(0.1 -0.1)">
     <use xlink:href="#DejaVuSans-30"/>
     <use xlink:href="#DejaVuSans-2e" transform="translate(63.623047 0)"/>
     <use xlink:href="#DejaVuSans-31" transform="translate(95.410156 0)"/>
     <use xlink:href="#DejaVuSans-25" transform="translate(159.033203 0)"/>
    </g>
   </g>
   <g id="text_8">
    <!-- No Raw (6) -->
    <g transform="translate(645.62792 399.365186) scale(0.1 -0.1)">
     <use xlink:href="#DejaVuSans-4e"/>
     <use xlink:href="#DejaVuSans-6f" transform="translate(74.804688 0)"/>
     <use xlink:href="#DejaVuSans-20" transform="translate(135.986328 0)"/>
     <use xlink:href="#DejaVuSans-52" transform="translate(167.773438 0)"/>
     <use xlink:href="#DejaVuSans-61" transform="translate(235.005859 0)"/>
     <use xlink:href="#DejaVuSans-77" transform="translate(296.285156 0)"/>
     <use xlink:href="#DejaVuSans-20" transform="translate(378.072266 0)"/>
     <use xlink:href="#DejaVuSans-28" transform="translate(409.859375 0)"/>
     <use xlink:href="#DejaVuSans-36" transform="translate(448.873047 0)"/>
     <use xlink:href="#DejaVuSans-29" transform="translate(512.496094 0)"/>
    </g>
   </g>
   <g id="text_9">
    <!-- 99.9% -->
    <g transform="translate(629.595272 317.385685) scale(0.1 -0.1)">
     <use xlink:href="#DejaVuSans-39"/>
     <use xlink:href="#DejaVuSans-39" transform="translate(63.623047 0)"/>
     <use xlink:href="#DejaVuSans-2e" transform="translate(127.246094 0)"/>
     <use xlink:href="#DejaVuSans-39" transform="translate(159.033203 0)"/>
     <use xlink:href="#DejaVuSans-25" transform="translate(222.65625 0)"/>
    </g>
   </g>
   <g id="text_10">
    <!-- Samples with SRA Available -->
    <g transform="translate(562.22625 5.301818) scale(0.12 -0.12)">
     <defs>
      <path id="DejaVuSans-6d" d="M 3328 2828 
Q 3544 3216 3844 3400 
Q 4144 3584 4550 3584 
Q 5097 3584 5394 3201 
Q 5691 2819 5691 2113 
L 5691 0 
L 5113 0 
L 5113 2094 
Q 5113 2597 4934 2840 
Q 4756 3084 4391 3084 
Q 3944 3084 3684 2787 
Q 3425 2491 3425 1978 
L 3425 0 
L 2847 0 
L 2847 2094 
Q 2847 2600 2669 2842 
Q 2491 3084 2119 3084 
Q 1678 3084 1418 2786 
Q 1159 2488 1159 1978 
L 1159 0 
L 581 0 
L 581 3500 
L 1159 3500 
L 1159 2956 
Q 1356 3278 1631 3431 
Q 1906 3584 2284 3584 
Q 2666 3584 2933 3390 
Q 3200 3197 3328 2828 
z
" transform="scale(0.015625)"/>
      <path id="DejaVuSans-70" d="M 1159 525 
L 1159 -1331 
L 581 -1331 
L 581 3500 
L 1159 3500 
L 1159 2969 
Q 1341 3281 1617 3432 
Q 1894 3584 2278 3584 
Q 2916 3584 3314 3078 
Q 3713 2572 3713 1747 
Q 3713 922 3314 415 
Q 2916 -91 2278 -91 
Q 1894 -91 1617 61 
Q 1341 213 1159 525 
z
M 3116 1747 
Q 3116 2381 2855 2742 
Q 2594 3103 2138 3103 
Q 1681 3103 1420 2742 
Q 1159 2381 1159 1747 
Q 1159 1113 1420 752 
Q 1681 391 2138 391 
Q 2594 391 2855 752 
Q 3116 1113 3116 1747 
z
" transform="scale(0.015625)"/>
     </defs>
     <use xlink:href="#DejaVuSans-53"/>
     <use xlink:href="#DejaVuSans-61" transform="translate(63.476562 0)"/>
     <use xlink:href="#DejaVuSans-6d" transform="translate(124.755859 0)"/>
     <use xlink:href="#DejaVuSans-70" transform="translate(222.167969 0)"/>
     <use xlink:href="#DejaVuSans-6c" transform="translate(285.644531 0)"/>
     <use xlink:href="#DejaVuSans-65" transform="translate(313.427734 0)"/>
     <use xlink:href="#DejaVuSans-73" transform="translate(374.951172 0)"/>
     <use xlink:href="#DejaVuSans-20" transform="translate(427.050781 0)"/>
     <use xlink:href="#DejaVuSans-77" transform="translate(458.837891 0)"/>
     <use xlink:href="#DejaVuSans-69" transform="translate(540.625 0)"/>
     <use xlink:href="#DejaVuSans-74" transform="translate(568.408203 0)"/>
     <use xlink:href="#DejaVuSans-68" transform="translate(607.617188 0)"/>
     <use xlink:href="#DejaVuSans-20" transform="translate(670.996094 0)"/>
     <use xlink:href="#DejaVuSans-53" transform="translate(702.783203 0)"/>
     <use xlink:href="#DejaVuSans-52" transform="translate(766.259766 0)"/>
     <use xlink:href="#DejaVuSans-41" transform="translate(831.742188 0)"/>
     <use xlink:href="#DejaVuSans-20" transform="translate(900.150391 0)"/>
     <use xlink:href="#DejaVuSans-41" transform="translate(931.9375 0)"/>
     <use xlink:href="#DejaVuSans-76" transform="translate(994.470703 0)"/>
     <use xlink:href="#DejaVuSans-61" transform="translate(1053.650391 0)"/>
     <use xlink:href="#DejaVuSans-69" transform="translate(1114.929688 0)"/>
     <use xlink:href="#DejaVuSans-6c" transform="translate(1142.712891 0)"/>
     <use xlink:href="#DejaVuSans-61" transform="translate(1170.496094 0)"/>
     <use xlink:href="#DejaVuSans-62" transform="translate(1231.775391 0)"/>
     <use xlink:href="#DejaVuSans-6c" transform="translate(1295.251953 0)"/>
     <use xlink:href="#DejaVuSans-65" transform="translate(1323.035156 0)"/>
    </g>
   </g>
  </g>
 </g>
</svg>
